<svg id="Ebene_1" data-name="Ebene 1" xmlns="http://www.w3.org/2000/svg" viewBox="0 0 113.86 110.51"><defs><style>.cls-1{opacity:0.85;}.cls-2{fill:#fff;stroke:#fff;stroke-miterlimit:10;stroke-width:0.34px;}</style></defs><g class="cls-1"><path class="cls-2" d="M96.61,56.37a30.87,30.87,0,0,1,1.78,5.33,5.23,5.23,0,0,1-.47,4.46,3.53,3.53,0,0,0-.33.64,4.17,4.17,0,0,1-2.4,2.27c-.8.38-1.64.73-2.47,1.08a2.64,2.64,0,0,1-.9.29c-1.84,0-3.68.41-5.51-.32a9.87,9.87,0,0,0-1-.27,6.92,6.92,0,0,1-2.62-1.29A30.46,30.46,0,0,1,78.94,65a62.91,62.91,0,0,0-6.11-6.23c-.54-.46-1-1-1.57-1.45a4.41,4.41,0,0,0-2.11-1,6.15,6.15,0,0,1-3.8-2.1A14.34,14.34,0,0,0,61.4,51a41,41,0,0,1-6-4.47,43,43,0,0,1-4.7-5,13,13,0,0,1-2.51-4.71c-.11-.47-.32-.92-.44-1.39A2.72,2.72,0,0,1,48,33.2a9.34,9.34,0,0,1,1.52-2,7.57,7.57,0,0,1,2.05-1.34,21.49,21.49,0,0,1,5.22-1.65c1.43-.26,2.87-.49,4.32-.62a18.94,18.94,0,0,1,7.51.69,5,5,0,0,0,1.24.31,10,10,0,0,1,4,1.37,22.1,22.1,0,0,1,7,5.61,11.17,11.17,0,0,0,.86,1,47.15,47.15,0,0,1,3.71,4.21,11.45,11.45,0,0,0,1.77,1.78,6.19,6.19,0,0,1,1.46,1.66c1.11,1.8,2.45,3.49,3.71,5.22a23.8,23.8,0,0,1,1.47,2.23,29.94,29.94,0,0,1,2.34,3.89C96.38,55.84,96.53,56.18,96.61,56.37Zm-21.71-25a1.65,1.65,0,0,0-1.21-.68,2.57,2.57,0,0,0,1.19.71c.89.75,1.79,1.49,2.67,2.25s1.57,1.55,2.7,2.36a3.78,3.78,0,0,0-.27-.53,24.62,24.62,0,0,0-4.2-3.71A1.5,1.5,0,0,0,74.9,31.32ZM96,59.38a18.75,18.75,0,0,0-1.54-3.07c-.71-1.24-1.26-2.53-2.09-3.73S90.68,50,89.85,48.75c-.3-.46-.61-.92-.94-1.37a.65.65,0,0,0-.71-.32,1.29,1.29,0,0,1-1.48-.46c-.22-.21-.48-.4-.7-.61-.73-.73-1.72-1.2-2.51-1.87A6.44,6.44,0,0,0,82,43.17a54.7,54.7,0,0,0-6.43-2.33,13.83,13.83,0,0,0-2.8-.61c-2.1-.24-4.17-.65-6.25-1a19.24,19.24,0,0,0-4.28-.3c-.33,0-.7-.05-.93.18s0,.37,0,.56a.68.68,0,0,1-.29.51,8,8,0,0,1-.72.54.45.45,0,0,0-.2.62c.24.52.48,1.05.77,1.56.9,1.6,1.78,3.22,2.76,4.79a60.88,60.88,0,0,0,3.9,5.68,9.3,9.3,0,0,0,2,2.07A37.48,37.48,0,0,1,75.07,60c1.72,1.72,3.49,3.41,5,5.25a17.16,17.16,0,0,0,1.6,1.59,10.68,10.68,0,0,0,4.89,2.75,8.35,8.35,0,0,0,4.62,0,9.26,9.26,0,0,0,5.14-3.53,2.57,2.57,0,0,0,.53-1.18,9.29,9.29,0,0,0,0-2.58A13.27,13.27,0,0,0,96,59.38Zm-13.13-19c0-.16,0-.3-.09-.37-1.17-1.2-2-2.59-3.27-3.74l-2.15-2A25.93,25.93,0,0,0,68.77,29c-1-.38-2-.54-3-.84a5.77,5.77,0,0,0-1.84-.22,42.45,42.45,0,0,0-6.61.74,18.79,18.79,0,0,0-5.23,1.59,6.94,6.94,0,0,0-2.81,2.32,3.83,3.83,0,0,0-.47,3.94,6.27,6.27,0,0,1,.32.92,14.12,14.12,0,0,0,3.3,5.21c.6.64,1.26,1.24,1.85,1.89A41,41,0,0,0,61,50.13c.45.31.95.58,1.43.86a.39.39,0,0,0,.26,0,.18.18,0,0,0,.08-.18A14.1,14.1,0,0,0,62,49.25a21.24,21.24,0,0,1-2.13-4.47,6.35,6.35,0,0,0-.51-1.24,6.35,6.35,0,0,1-1-2.87,2.46,2.46,0,0,0-.92-1.83c-1.25-1.15-1-1,0-2.12l.1-.08a.54.54,0,0,1,.65,0c.19.13.36.28.54.42.95.72.95.72,2.14.43L63,37a10,10,0,0,1,2.26-.23c1.14,0,2.29.06,3.43.12a25,25,0,0,1,3.84.54c2.26.44,4.4,1.28,6.69,1.64a7.59,7.59,0,0,1,1.34.46A11.1,11.1,0,0,0,82.84,40.35Zm-22.27-2c.09,0,.18.08.25.07a30.94,30.94,0,0,1,9.09.79,22,22,0,0,0,2.41.4,15.1,15.1,0,0,1,3.22.67c1.55.46,3.09,1,4.6,1.53.94.34,1.81.82,2.73,1.17a15.72,15.72,0,0,1,4.28,2.07.35.35,0,0,0,.26,0c.15-.06.12-.19,0-.29a8.48,8.48,0,0,0-4.61-3.74,8,8,0,0,1-1.06-.4,15,15,0,0,0-4.33-1.38,5.49,5.49,0,0,1-.7-.17c-1-.27-2-.58-3.05-.8a37.45,37.45,0,0,0-4.23-.76c-1.24-.11-2.48-.12-3.72-.18A13.88,13.88,0,0,0,60.57,38.37Zm7.82,17c-.3-.37-.46-.62-.66-.84a55.63,55.63,0,0,1-4.34-6c-.48-.7-.84-1.45-1.25-2.18l-1.46-2.63c-.28-.49-.58-1-.87-1.47a2,2,0,0,0,.21,1c.15.38.37.75.5,1.13a33.83,33.83,0,0,0,4.28,8,10.49,10.49,0,0,0,1.6,1.89A4,4,0,0,0,68.39,55.33Zm20.44-9.62c0,.18,0,.27,0,.33A122.11,122.11,0,0,1,96.39,58.4c.07.14.11.32.42.38a20.57,20.57,0,0,0-2.61-5.56c-1.15-1.63-2.22-3.3-3.36-4.95A19.72,19.72,0,0,0,88.83,45.71Zm-28.49-6.4a19.21,19.21,0,0,0-2.09-1.93.38.38,0,0,0-.49.06.47.47,0,0,0-.11.73A12.68,12.68,0,0,0,59.58,40a.45.45,0,0,0,.62,0C60.37,39.84,60.52,39.7,60.34,39.31Zm24.6,2a10.84,10.84,0,0,0-2.24-2.71.37.37,0,0,0,.09.44A27.47,27.47,0,0,0,84.94,41.3Z"/><path class="cls-2" d="M74.35,75a6,6,0,0,1,.74,5.28c-.75,2.65-1,3-3.4,4.91a7.13,7.13,0,0,1-3.27,1.46c-1.13.19-2.28.34-3.43.45a16.56,16.56,0,0,1-5.91-.71c-.65-.17-1.29-.39-1.93-.59A26.5,26.5,0,0,1,53,83.9c-1.61-.84-3.19-1.71-4.76-2.59-.78-.45-1.51-1-2.26-1.43-.46-.3-.89-.62-1.37-.89-1.36-.74-2.75-1.46-4.12-2.2-.75-.41-1.48-.84-2.21-1.27-1.2-.71-2.4-1.41-3.58-2.15a50.75,50.75,0,0,1-6.76-4.9c-.75-.67-1.49-1.36-2.3-2A13.43,13.43,0,0,1,21,60.58a26.81,26.81,0,0,1-1.9-7.2,19.09,19.09,0,0,1,.64-7,28.18,28.18,0,0,1,2-4.2,1.89,1.89,0,0,1,1.09-.89,8,8,0,0,0,1.83-1,13.53,13.53,0,0,1,3.65-1.49A4.66,4.66,0,0,1,30,38.61a26.15,26.15,0,0,1,7.18,1.56A22.54,22.54,0,0,1,42,42.79a4.06,4.06,0,0,0,.46.36A29.75,29.75,0,0,1,49.24,49c.48.51.91,1.06,1.39,1.57A7.42,7.42,0,0,0,52.38,52,12.66,12.66,0,0,1,57,56.43c1,1.49,1.91,3,2.86,4.48a13.19,13.19,0,0,0,2.4,2.57c2.05,1.88,4.4,3.51,6.57,5.28A20.78,20.78,0,0,1,74.35,75Zm-.68.39a8.76,8.76,0,0,0-.52-1,29.88,29.88,0,0,0-6.64-6.59,57.93,57.93,0,0,1-6.58-5.64,1.62,1.62,0,0,0-1.13-.64,1,1,0,0,1-.74-.45A20.28,20.28,0,0,0,54,57.66c-.41-.28-.84-.54-1.21-.84a44.59,44.59,0,0,0-6.17-4.09,21.49,21.49,0,0,0-7.47-2.41c-.63-.1-1.32-.25-1.4.57,0,.09-.19.2-.32.25a3.94,3.94,0,0,1-1.32.38c-.83,0-1,.34-1.13.83a14.11,14.11,0,0,0-.59,4.22,34.09,34.09,0,0,0,1.72,8.54,34.92,34.92,0,0,0,3.79,7.68,3.08,3.08,0,0,0,1.25,1.14,7.63,7.63,0,0,1,2,1.31c.26.27.3.47,0,.63s-.35.37,0,.56.53.29.79.43c3,1.59,6.1,3.14,9.09,4.78a42.18,42.18,0,0,0,5.54,2.54A36.42,36.42,0,0,0,62,85.31c2.38.62,4.7.1,7-.3a3.42,3.42,0,0,0,1-.44c.26-.14.49-.33.76-.47C74.24,82.3,75.56,78.55,73.67,75.39ZM33.25,69.85a1.15,1.15,0,0,0-.1-1c-.47-1.37-.94-2.74-1.4-4.11a2.94,2.94,0,0,1-.14-.64A35,35,0,0,1,31.49,55a10.92,10.92,0,0,1,1.44-3.93c.46-.79.65-1.42-.24-2.07a1.61,1.61,0,0,1-.36-.42.7.7,0,0,1-.09-.37,1.51,1.51,0,0,1,2.23-.92,6.11,6.11,0,0,1,1.34.92,1.11,1.11,0,0,0,1,.24,17,17,0,0,1,5.64,0,17.59,17.59,0,0,1,4.86,1.07,2.32,2.32,0,0,0,1.55.24A35,35,0,0,0,44.15,45a9.64,9.64,0,0,0-1.87-1.2,6.2,6.2,0,0,1-.73-.49,20.52,20.52,0,0,0-5.34-2.78c-.83-.31-1.71-.48-2.55-.73a12.84,12.84,0,0,0-4-.51,5,5,0,0,0-1.55.21,13.73,13.73,0,0,0-3.31,1.47,6.07,6.07,0,0,1-1,.6,3.35,3.35,0,0,0-1.56,1.4A19.22,19.22,0,0,0,21,45.18a14.94,14.94,0,0,0-.91,8.65,12.52,12.52,0,0,0,1.22,3.61c.38.76.72,1.53,1.07,2.3A14.37,14.37,0,0,0,27,65.44c1.52,1.14,3.14,2.19,4.63,3.37A17.93,17.93,0,0,0,33.25,69.85Zm1.69,1a7.65,7.65,0,0,0,2.84,2.93,10.54,10.54,0,0,0,1.92.9.48.48,0,0,0,.29,0c.17-.09.1-.22,0-.34l-.35-.58a30,30,0,0,1-2.52-4.47,43.8,43.8,0,0,1-1.77-4.15,36.25,36.25,0,0,1-1.61-7.5A14.84,14.84,0,0,1,34,52.92a4.54,4.54,0,0,1,.58-1.6c.14-.19.21-.44-.1-.55s-.44.16-.56.33a9.24,9.24,0,0,0-1.44,3.25,15,15,0,0,0-.39,5.38,8.93,8.93,0,0,1,0,1.16,12.38,12.38,0,0,0,.9,5,6.82,6.82,0,0,1,.31,1A17.87,17.87,0,0,0,34.94,70.89ZM58.37,60c-.15-.27-.28-.55-.45-.81C57.22,58.12,56.59,57,55.8,56a11.15,11.15,0,0,0-2.68-2.72c-.84-.54-1.68-1.06-2.5-1.61C48.9,50.51,46.79,50,44.8,49.33a2.32,2.32,0,0,0-.47-.06,27.27,27.27,0,0,1-3.13-.37,9.47,9.47,0,0,0-3.6.09c-.21,0-.43.11-.44.31s.24.28.44.29a30.5,30.5,0,0,1,3.57.57,22.79,22.79,0,0,1,8,3.31,39.45,39.45,0,0,1,4.24,2.94C55,57.65,56.75,58.69,58.37,60Zm-12,19.1a7,7,0,0,0,2.31,1.69c1.19.65,2.37,1.32,3.58,1.94,1.48.76,3,1.51,4.49,2.2.64.3,1.39.43,2.06.67a15.35,15.35,0,0,0,5.56.87c.15,0,.42.11.45-.23a18.58,18.58,0,0,1-7-1.56,61.18,61.18,0,0,1-8-3.93A17.17,17.17,0,0,0,46.4,79.1ZM35.19,72.74a1.71,1.71,0,0,0-.65-.88l-2.68-2-4.7-3.47c-.39-.28-.75-.6-1.17-.86a3.36,3.36,0,0,0-1.42-.83,95.56,95.56,0,0,0,9.49,7.54A1.88,1.88,0,0,0,35.19,72.74Zm1.47-22.62a8.15,8.15,0,0,0-1.76-1.76,7.35,7.35,0,0,0-.85-.56.52.52,0,0,0-.57,0,.65.65,0,0,0-.19.46,1,1,0,0,0,.47.79,10.27,10.27,0,0,1,1.47,1.3,2.83,2.83,0,0,0,.61.41.79.79,0,0,0,.73,0C36.85,50.56,36.78,50.35,36.66,50.12ZM66.22,86.3,67.89,86A2.17,2.17,0,0,0,66.22,86.3Z"/></g></svg>