<svg id="Ebene_1" data-name="Ebene 1" xmlns="http://www.w3.org/2000/svg" viewBox="0 0 113.86 110.51"><defs><style>.cls-1{opacity:0.85;}.cls-2{fill:#fff;}</style></defs><g class="cls-1"><path class="cls-2" d="M21.12,54.29c.89.12,1.78.17,2.66.22,2.28.12,4.55.11,6.82,0,1.39-.06,2.78-.12,4.18-.23,2.66-.2,5.31-.48,7.95-.91a59,59,0,0,0,9.72-2.31,22.36,22.36,0,0,0,7.72-4.13,19.69,19.69,0,0,0,4.42-5.72,70.17,70.17,0,0,0,3.77-8.94c1-2.87,2-5.78,3.11-8.61a11.65,11.65,0,0,1,6-6.59c2.9-1.33,5.71-1.22,8.18,1A7.49,7.49,0,0,1,88,24.47c-.17-.68-.27-1.39-.5-2.06A6.83,6.83,0,0,0,83.91,18a6.18,6.18,0,0,0-4.57-.26,10.45,10.45,0,0,0-5.89,5.15,29.38,29.38,0,0,0-1.86,4.71,124.24,124.24,0,0,1-5.18,13.26,23.37,23.37,0,0,1-4.57,6.53,20.68,20.68,0,0,1-6.66,4.19,53.43,53.43,0,0,1-12,3.19,67.61,67.61,0,0,1-8.76.82,51.43,51.43,0,0,1-12.13-.92c-.38-.07-.76-.17-1.14-.26Z"/><path class="cls-2" d="M39.46,81.61c.85.16,1.7.33,2.56.47,2.15.32,4.31.57,6.48.73,2.45.17,4.9.28,7.35.25,2.8,0,5.6-.16,8.39-.45A53.9,53.9,0,0,0,73.34,81a13.93,13.93,0,0,0,4.22-1.84,3.58,3.58,0,0,0,.87-.82A1.76,1.76,0,0,0,78,75.89a9.45,9.45,0,0,0-1.6-1.1,3.4,3.4,0,0,1,1.23.23,15.87,15.87,0,0,1,4.72,2,2.07,2.07,0,0,1,.24.17c1.48,1.22,1.35,2.63-.34,3.69A19.16,19.16,0,0,1,76.54,83a60.12,60.12,0,0,1-9.34,1.38,92.49,92.49,0,0,1-11.29.19A64.16,64.16,0,0,1,43.49,83a27.93,27.93,0,0,1-3.9-1.21,1.19,1.19,0,0,1-.15-.09Z"/><path class="cls-2" d="M83.68,27.82a8.56,8.56,0,0,0-2,.62,7.29,7.29,0,0,0-3.49,4.05,43.23,43.23,0,0,0-1.93,6.27,25.15,25.15,0,0,1-4,8.34,23.28,23.28,0,0,1-8.33,7.32,28.76,28.76,0,0,1-8.7,2.89,26.9,26.9,0,0,1-9.59-.37,31.07,31.07,0,0,1-4-1.11c-.09,0-.21,0-.25-.19,1.18.13,2.34.28,3.51.38a37.53,37.53,0,0,0,11.44-.34,25.11,25.11,0,0,0,10.76-5A24.77,24.77,0,0,0,75.12,37.4a24.5,24.5,0,0,1,2.33-6.17A6.6,6.6,0,0,1,83,27.7,1,1,0,0,1,83.68,27.82Z"/><path class="cls-2" d="M21.41,53.59l3-.73a36.86,36.86,0,0,0,8.05-2.71,39.86,39.86,0,0,0,7.17-4.93c2-1.62,3.71-3.51,5.66-5.16a30.93,30.93,0,0,1,11.52-6.43,25.55,25.55,0,0,1,10-.78l.35.06a2.54,2.54,0,0,1-1.1.26A44.06,44.06,0,0,0,54.64,36a32.21,32.21,0,0,0-8.16,5c-1.52,1.25-2.84,2.73-4.33,4a44.73,44.73,0,0,1-9,6.42,19.82,19.82,0,0,1-6,1.87A27.74,27.74,0,0,1,22,53.7,1,1,0,0,1,21.41,53.59Z"/><path class="cls-2" d="M44.51,77.23c1.13.15,2.23.32,3.35.42,1.7.15,3.41.24,5.12.24.32,0,.39-.12.33-.42a39.24,39.24,0,0,1-.48-5.3,3.5,3.5,0,0,1,.4-1.88.89.89,0,0,0,.07-.75,7.56,7.56,0,0,1-.45-2.6c.28,0,.33.25.44.39.23.3.43.34.64,0A.54.54,0,0,1,54,67.2c.09-.1.13-.33.31-.24s.06.23.05.36A7.85,7.85,0,0,1,54,69.41a1.11,1.11,0,0,0,.09,1,2.66,2.66,0,0,1,.33,1.49,34.43,34.43,0,0,1-.45,5.55c0,.24-.06.37.26.36a30.86,30.86,0,0,0,4.4-.38c.37-.06.4-.23.36-.55a35.63,35.63,0,0,1-.35-4.61,4.19,4.19,0,0,1,.26-1.76,2.18,2.18,0,0,0,0-1.59,4.17,4.17,0,0,1-.23-2c.24,0,.31.23.39.37.26.41.45.33.67,0,.08-.13.14-.31.4-.35a5.13,5.13,0,0,1-.16,1.66c-.07.32-.18.63-.28,1a.54.54,0,0,0,.12.6A2.37,2.37,0,0,1,60,71.22,19.36,19.36,0,0,1,60,75c0,.63-.12,1.25-.2,1.88,0,.3.08.4.36.34A11,11,0,0,0,63.4,76c1-.62,1-1.26.1-2a1.54,1.54,0,0,1-.34-.29,6.43,6.43,0,0,1,3,1.21.92.92,0,0,1,0,1.59,7.12,7.12,0,0,1-3,1.24,34.15,34.15,0,0,1-6.61.82A40.65,40.65,0,0,1,47.21,78,16.7,16.7,0,0,1,45,77.43Z"/><path class="cls-2" d="M45.06,44.66c-.28.09-.46.13-.62.2a1.08,1.08,0,0,0-.72,1c0,.47.41.66.8.79a7.14,7.14,0,0,0,2.15.32A19.32,19.32,0,0,0,55,45.27a25.3,25.3,0,0,0,7.26-4.48,17.26,17.26,0,0,0,4.52-6.53c0-.08,0-.2.19-.24a12,12,0,0,1-.59,2.4,20.44,20.44,0,0,1-3.22,6.26,18.67,18.67,0,0,1-7,5.58,23.43,23.43,0,0,1-8.51,2.07,16.55,16.55,0,0,1-4.16,0,5.24,5.24,0,0,1-2.87-1.14,1.25,1.25,0,0,1-.17-1.86,1.48,1.48,0,0,1,1.93-.43,2.49,2.49,0,0,0-.71.26,1,1,0,0,0-.17,1.64,3.26,3.26,0,0,0,2.23.71,27.24,27.24,0,0,0,11.1-1.63,18.54,18.54,0,0,0,9.91-8.72,7.22,7.22,0,0,0,.4-.84c-.48.54-.9,1.13-1.37,1.68a21.12,21.12,0,0,1-5.58,4.51,22.93,22.93,0,0,1-6.81,2.75,19.34,19.34,0,0,1-6.57.37A1.84,1.84,0,0,1,43,46.28a1.3,1.3,0,0,1,.46-1.43A1.43,1.43,0,0,1,45.06,44.66Z"/><path class="cls-2" d="M62.35,35.16a29,29,0,0,0-7.84,4.2,6.62,6.62,0,0,0-1.29,1.3.87.87,0,0,0-.18,1c.2.37.56.31.88.31s.38,0,.61,0a1.32,1.32,0,0,1-1.73.3,1.27,1.27,0,0,1-.36-1.56,5.36,5.36,0,0,1,2-2.17,28,28,0,0,1,7.34-3.72.32.32,0,0,0,.2-.17l-1,.27-1,.31a33.16,33.16,0,0,0-9.64,4.78,2.34,2.34,0,0,0-1,1.2c-.2.76.23,1.2,1,1a4.54,4.54,0,0,0,.79-.36,1.43,1.43,0,0,1-1.88.78,1.37,1.37,0,0,1-.67-1.89,4.78,4.78,0,0,1,1.78-2A31,31,0,0,1,61.86,34a19.55,19.55,0,0,1,4.45-.45,1,1,0,0,1,.57.12,39.73,39.73,0,0,0-4.55,3.06,11.88,11.88,0,0,0-1.57,1.52,1.9,1.9,0,0,0-.23.39.56.56,0,0,0,0,.65.54.54,0,0,0,.67.16.83.83,0,0,1,.49-.08,1.21,1.21,0,0,1-1.45.36.88.88,0,0,1-.28-1.18,2.54,2.54,0,0,1,.64-.94A17.53,17.53,0,0,1,64.11,35c.21-.13.43-.25.63-.4a7.06,7.06,0,0,0-1.76.82A26.42,26.42,0,0,0,58,39a4.55,4.55,0,0,0-1.15,1.49c-.21.46,0,.71.47.66a2.44,2.44,0,0,0,.57-.16l.61-.27a1.22,1.22,0,0,1-1,.85,1.09,1.09,0,0,1-1.21-.2.86.86,0,0,1-.15-1,5.81,5.81,0,0,1,2-2.39,22.43,22.43,0,0,1,4-2.65Z"/><path class="cls-2" d="M29.06,53.51c3.74-.65,7-2.4,10.42-4.14-.2.86-3,2.43-6,3.46,3-.5,5.93-1.58,8.93-2.24-2,1.45-4.34,1.88-6.64,2.48,1.92-.12,3.81-.45,5.71-.73s3.75-.74,5.67-.88a6.69,6.69,0,0,1-2,.85,48.55,48.55,0,0,1-8,1.28,51.45,51.45,0,0,1-6.8.19c-.41,0-.81-.08-1.22-.12Z"/><path class="cls-2" d="M96.33,37c-3.34-4.11-7.07-7.59-12.19-9.26a3.46,3.46,0,0,1,1.63-.05A9.48,9.48,0,0,1,89,29.12a22.12,22.12,0,0,1,5.74,5.3,1.1,1.1,0,0,0,.15.14c-1.66-3.64-4.6-6.27-7.08-9.38a1.06,1.06,0,0,1,.84.32,20.12,20.12,0,0,1,5.23,5.87,25.39,25.39,0,0,1,2.37,5A.83.83,0,0,1,96.33,37Z"/><path class="cls-2" d="M48.23,42.7a1.7,1.7,0,0,0-1,.49.83.83,0,0,0,.3,1.42,3.27,3.27,0,0,0,1.16.22,15.18,15.18,0,0,0,5.41-1,24.54,24.54,0,0,0,7-3.51,1.29,1.29,0,0,1,.3-.12,10.74,10.74,0,0,1-2.12,1.74,25,25,0,0,1-7.94,3.35,10.18,10.18,0,0,1-3.16.23,2.31,2.31,0,0,1-1.67-.79,1.4,1.4,0,0,1,0-1.71A1.34,1.34,0,0,1,48.23,42.7Z"/><path class="cls-2" d="M60.1,63.46A2,2,0,0,1,59.71,65c-.22.23-.21.35.08.51a.71.71,0,0,1,.34.81.72.72,0,0,1-.58.61.74.74,0,0,1-.92-.39.73.73,0,0,1,.27-1c.31-.19.28-.31.07-.55a1.82,1.82,0,0,1-.38-1.3,13.53,13.53,0,0,1,.46-3.29c0-.17.05-.46.3-.44s.26.27.31.46A16.23,16.23,0,0,1,60.1,63.46Z"/><path class="cls-2" d="M54.35,63.75a1.74,1.74,0,0,1-.47,1.37c-.15.15-.12.22.07.31a.74.74,0,0,1,.44.94.81.81,0,0,1-1.52.08.77.77,0,0,1,.34-1c.2-.12.25-.21.08-.41a1.94,1.94,0,0,1-.44-1.53,18.72,18.72,0,0,1,.39-2.9,4.42,4.42,0,0,1,.15-.48c0-.1.09-.22.24-.21s.18.13.22.24.15.51.2.77A14.58,14.58,0,0,1,54.35,63.75Z"/><path class="cls-2" d="M60,60.29c-.72-.78-.43-2.58.18-3.41A3,3,0,0,1,63,55.6,5.87,5.87,0,0,0,60,60.29Z"/><path class="cls-2" d="M85.91,24.21a1.15,1.15,0,0,1-1.21-1.5c0-.13.08-.23.2-.26a1.39,1.39,0,0,1,1.28.18,1.49,1.49,0,0,1,.36,1.29C86.43,24.25,86.13,24.18,85.91,24.21Z"/><path class="cls-2" d="M53,61c-.55-2.24-.55-2.24-1.82-3.11a1.33,1.33,0,0,1,1.45.29A2.33,2.33,0,0,1,53,61Z"/><path class="cls-2" d="M56.86,57.62a1.6,1.6,0,0,1,1.75.51,2.43,2.43,0,0,1,.1,2.62C58.6,59.39,58.24,58.22,56.86,57.62Z"/><path class="cls-2" d="M56.09,57.62a3.27,3.27,0,0,0-1.85,3,2.3,2.3,0,0,1,0-2.39A1.61,1.61,0,0,1,56.09,57.62Z"/></g></svg>