<svg id="Ebene_1" data-name="Ebene 1" xmlns="http://www.w3.org/2000/svg" viewBox="0 0 113.86 110.51"><defs><style>.cls-1{opacity:0.85;}.cls-2{fill:#fff;}</style></defs><g class="cls-1"><path class="cls-2" d="M49.35,87.76a15.06,15.06,0,0,1-4.1-5.1,9.71,9.71,0,0,1-1-3.68c-.23-.34-1.14-.92-1.07.06-.71,1.51,1.59,5.08,2.4,6.24a16.26,16.26,0,0,0,2.68,2.94C48.85,88.76,50.23,88.43,49.35,87.76Z"/><path class="cls-2" d="M96,52.54A24.45,24.45,0,0,0,94.61,46a31,31,0,0,0-4.56-8.62c.39-.36,2.63-2.38,1.09-2.74-.77-.18-1.72,1-2.17,1.49a34.36,34.36,0,0,0-5.14-1.79,32.13,32.13,0,0,0-9.09-1.48c-.77,0-8.2.63-7.24,1.86.48.62,1.72,1.15,2.27,1.86a6.35,6.35,0,0,1,1.13,3.38c.07.84-.41,2.52-.13,3.23-.2,1.12,1.44.27,1.82.3,1.33.1,2.47,1.3,3.29,2.24s2.09,2,1.24,3q-1.5,1.77-3,3.6l-1.37,1.77c-1-.2-1.94-.36-2.92-.51a71.36,71.36,0,0,0-18.81-.08c-1,.12-1.29.52-1.72-.51-.29-.68-.57-1.37-.85-2.06-.35-.87-.71-1.73-1.08-2.6-1.22-2.86-2.43-5.73-3.71-8.57-.85-1.89-1.76-3.77-2.46-5.53-.15-.39,0-1.23-.24-1.48-.92-.91.11.88-.7-.65a6.61,6.61,0,0,0-2.75-2.91c-.29-.15-.83-.8-1.14-.8s-1,.22-1.54.22a22.27,22.27,0,0,0-3.74.39c-1.14.2-4.43.23-4.93,1.38s-1.05,2.48-.14,3.62c.76.55,2.41-.18,3.25-.33a28.51,28.51,0,0,1,5.56-.83c1.49,0,1.62.23,2.16,1.34a.53.53,0,0,0,.57.64c.35.82.65,1.66,1,2.49.7,1.81,1.63,3.5,2.47,5.25,1.84,3.84,3.43,7.8,4.89,11.8-3.56.77-8.47,2-10.71,5.19-.93,1.3-.95,2.84-1.06,4.38C33.49,73,35.55,83.4,42.24,90.14c6.47,6.51,17.27,9.13,25.76,5.68,10.78-4.39,14.8-15.75,15.39-26.58.11-1.95.15-3.89.19-5.84s.75-3.16-.47-4.81c-2-2.7-6-3.66-9.14-4.29a53.62,53.62,0,0,1,3.77-4.52c.84-.85,1.44-1.49,2.43-1.6a5.94,5.94,0,0,1,5.88,3.41c.43.94,0,1.59,0,2.42,0,1.18,1,.19,1.24-.21,2.43-.69,4.76.69,6.56,2.07.26.2,1.78,1.47,1.91.3C96.24,55.57,96,53.3,96,52.54ZM35.46,31.76a16.74,16.74,0,0,0-2.74.09c-2,.2-4,.59-6,1-1.19-2.65,4.66-2.8,6.1-3,.82-.11,3.09-.66,3,.42A4.66,4.66,0,0,1,35.46,31.76Zm32.4,26.57a24.71,24.71,0,0,0-3.51-.78,19.32,19.32,0,0,0-5.58,0,14.31,14.31,0,0,0-3.58,1,9.4,9.4,0,0,0-1,.51c-.63.36-1.28-.52-2.07-.66a14,14,0,0,1-1-1.61,9.2,9.2,0,0,0,1.11-.31,2.18,2.18,0,0,0,1.21,1c1.58.56,3.29-.14,4.84-.46a34.9,34.9,0,0,1,12.23.18c-.25.37-.51.74-.75,1.11C69.18,59.16,68.74,58.59,67.86,58.33Zm1,1.45c-.22.37-.44.74-.64,1.12a13.83,13.83,0,0,1-2.08-1.12c-.46-.09-.57.12-.94.33a6,6,0,0,1-3.27.36c-2.51-.18-5.12-.64-7.53.36,0-1.68,3.45-1.76,4.8-1.94A19.65,19.65,0,0,1,68.82,59.78Zm1,.37c.55.22,1.09.45,1.63.69a9.3,9.3,0,0,0-1.79,1C68.83,61.22,69.33,61,69.84,60.15Zm.92-.93c.4-.62.81-1.22,1.24-1.82.29,0,.26.16.54.16,1.38,0,2.9,1.12,3.95,1.91a18.44,18.44,0,0,0-3.82.89C72.4,59.68,71.3,59.43,70.76,59.22ZM72.06,55c-.52.71-.55,1.22-1.47,1.08-.68-.11-1.37-.2-2-.27-1.55-.18-3.11-.31-4.67-.39a24.47,24.47,0,0,0-6.38.62,9,9,0,0,1-3.3.47c-.7-.1-.61-.48-1.08-.8a1.84,1.84,0,0,0-2.47.12c-.19-.38-.37-.77-.55-1.16A67.49,67.49,0,0,1,72.06,55ZM37.54,32.55a1.62,1.62,0,0,0-.53-.39c-.73-.41-.11-1.26-.08-2.1a4.53,4.53,0,0,1,1.31,1A15.18,15.18,0,0,0,37.54,32.55ZM39,32c.84,1.33.43,1.32-.37,2.44C38.17,33.41,38.52,32.92,39,32Zm1.13,2.32c.52,1.3.3,1.25-.67,2.24C39,35.47,39.32,35.11,40.11,34.28Zm4.06,12.59c-.79-1.88-1.63-4.18-2.53-6-.46-.92-1.7-3.36-1.55-3.55s.5-.41.93-.82c1.58,3.61,3.24,7.19,4.78,10.82s2.82,7.6,5,11c-.76,0-1.51.08-2.27.12C47.21,54.5,45.76,50.65,44.17,46.87Zm3,11c0,.13.09.31.18.58a12.36,12.36,0,0,1-1.36,0c.33-.14.67-.27,1-.39C47.16,58.09,47.2,58,47.19,57.87ZM36.85,78.05a42.3,42.3,0,0,1-1.27-12c.47,8.91,2.65,18.75,9.39,25.08A24.16,24.16,0,0,1,36.85,78.05Zm37,12.36c-5.66,5.14-16,6.77-23.09,3.4C39.35,88.38,36.58,74,36.56,62.55A14.24,14.24,0,0,0,41.78,62c1.17-.25,3.29-1,4.45-.43,1.6.7,2,2,2.79,3.48,1,1.8,1.29,1.55,2.84.55a16.2,16.2,0,0,1,2-1.13c1.4-.64,1.41-.29,2,1s1.38,2.94,3,3.34c2.89.71,5-2.3,6.57-4.2,1.12,1.31,5.77,4.58,7,2.44-.76-3.87,7.47-4.19,9.73-4.22C82,72.72,81.75,83.28,73.88,90.41ZM75.8,55.84c2.28.62,5.46,1.55,6.68,3.77A1.09,1.09,0,0,1,82,61.13a24.17,24.17,0,0,1-5,1.17c-2.19.46-5.85.86-5.94,3.61a6.17,6.17,0,0,1-2.53-.71c-1.33-.75-2.7-2-3.07-2-.61,0-1.37,1.21-1.7,1.59A13.27,13.27,0,0,1,61.31,67c-2.4,1.72-4.13-.65-5-2.47-.52-1.09-.35-1.83-1.6-1.53a14.3,14.3,0,0,0-4.29,2.24c-.67-2.93-2.22-5-5.45-4.89-.49,0-3.56.64-5.84,1-3.87.59-1.65-2.18-1.61-2.23a12.36,12.36,0,0,1,2.61-1.68A22.43,22.43,0,0,1,44,56c.35-.1,1.92-.72,2.2-.57.24-.05.59,1.33.68,1.59-.5,0-3.51,1.11-2.46,1.91,1.82,1.35,4.68.4,6.75.48.8,0,2,.16,2.1,1.16.05.42-.45,1.78.43,1.78s2-.84,3-.95a21.38,21.38,0,0,1,4.45.13,8.65,8.65,0,0,0,4.17-.27c1.11-.47,2.16.49,3.17,1.13.83.53,1.08,1,1.92.34a10.27,10.27,0,0,1,3-1.43,17.64,17.64,0,0,1,3.52-.74c.24,0,2.51-.16,1.33-1-.74-1.52-4.23-2.75-5.72-3C73.36,54.89,74.17,55.41,75.8,55.84ZM72,41.7c.14-2.37-.25-5.22-2.31-6.73a29.21,29.21,0,0,1,9.51-.45,32,32,0,0,1,5.12,1c1.06.31,3.77.8,4.39,1.74C83.08,36.44,77,39.4,72,41.7ZM75.71,44A5.73,5.73,0,0,0,73,42.42c4.35-2,9.52-5.29,14.24-4.17a69.28,69.28,0,0,0-8.89,9A16.19,16.19,0,0,0,75.71,44Zm11.36,7.27A7.1,7.1,0,0,0,84.2,48a6.82,6.82,0,0,0-4.28-.91c2.63-3,5.75-7.5,8.94-8.7.66.13.35,4.92.28,5.53A28.6,28.6,0,0,1,87.07,51.22ZM94.45,55c-1.9-1.45-4.06-3-6.6-2.79a28.37,28.37,0,0,0,2.29-12.79A24.17,24.17,0,0,1,94.45,55Z"/><path class="cls-2" d="M54.8,89.84a5.88,5.88,0,0,1-3-2.25c-.47-.27-1.46-.28-.94.54a6.65,6.65,0,0,0,2.89,2.46C54.64,91,55.78,90.17,54.8,89.84Z"/></g></svg>