<svg id="Ebene_1" data-name="Ebene 1" xmlns="http://www.w3.org/2000/svg" viewBox="0 0 113.86 110.51"><defs><style>.cls-1,.cls-2{fill:#fff;}.cls-2{stroke:#fff;stroke-miterlimit:10;stroke-width:1.14px;}</style></defs><path class="cls-1" d="M55,73.19h-.12c-5.53,0-10.12-2-12.6-5.52l1.36-1c2.17,3,6.27,4.79,11.25,4.82H55A14.09,14.09,0,0,0,65.72,67L67,68.12A15.84,15.84,0,0,1,55,73.19Z"/><path class="cls-1" d="M55,73.88h-.13c-5.75,0-10.54-2.16-13.15-5.81l-.4-.56,2.48-1.77.4.55c2,2.85,5.93,4.5,10.69,4.54H55A13.45,13.45,0,0,0,65.2,66.57l.45-.52L68,68l-.45.52A16.52,16.52,0,0,1,55,73.88Zm11-5.71L65.78,68A15.06,15.06,0,0,1,55,72.2H54.9c-4.91,0-9-1.68-11.39-4.56l-.24.17c2.43,3,6.62,4.66,11.62,4.69H55"/><rect class="cls-1" x="53.35" y="74.3" width="1.94" height="4.78"/><path class="cls-1" d="M56.09,79.88H53.2V73.51h2.89Z"/><path class="cls-2" d="M54.51,65.7c-6.48,0-9.69-3.16-11.26-6.07a13.07,13.07,0,0,1-1.51-6.23s-.08-10.87-.08-10.92c0-6.36,5.7-11.53,12.71-11.53s12.71,5.17,12.71,11.53l.12,5.68h0c0,2.77.12,1.22.12,6C67.32,60.53,61.58,65.7,54.51,65.7ZM43.26,54.18c.31,6,5.05,10.06,11.25,10.06s11.35-4.51,11.35-10.06c0-5.27-.24-11.69-.24-11.69,0-5.56-5.05-10.08-11.25-10.08S43.12,36.93,43.12,42.48C43.12,42.73,43.26,54.18,43.26,54.18Z"/><path class="cls-1" d="M64,81.53H45.28V78.8H64Z"/></svg>