<svg id="Ebene_1" data-name="Ebene 1" xmlns="http://www.w3.org/2000/svg" viewBox="0 0 113.86 110.51"><defs><style>.cls-1{opacity:0.85;}.cls-2{fill:#fff;stroke:#fff;stroke-miterlimit:10;stroke-width:0.63px;}</style></defs><g class="cls-1"><path class="cls-2" d="M95.7,78.13c-.58.1-1.16.21-1.74.29-1.46.21-2.92.37-4.39.47-1.67.11-3.33.19-5,.16-1.9,0-3.8-.1-5.69-.29a37.68,37.68,0,0,1-6.17-1,9.77,9.77,0,0,1-2.87-1.18,2.69,2.69,0,0,1-.59-.52,1.1,1.1,0,0,1,.29-1.56,6.53,6.53,0,0,1,1.09-.7,2.16,2.16,0,0,0-.84.15,10.75,10.75,0,0,0-3.2,1.24l-.16.11c-1,.78-.92,1.68.23,2.36A13.15,13.15,0,0,0,70.53,79a43.77,43.77,0,0,0,6.34.89,67.66,67.66,0,0,0,7.67.12A46,46,0,0,0,93,79a20,20,0,0,0,2.64-.77l.11-.06Z"/><path class="cls-2" d="M77.82,54.58a1.71,1.71,0,0,1-.46,0,2.9,2.9,0,0,1-1.81-1.59,16.33,16.33,0,0,1-1.36-4.15A5.1,5.1,0,0,1,74.53,45a2.39,2.39,0,0,1,1-.94.18.18,0,0,1,.24.11.18.18,0,0,1-.11.24,1.94,1.94,0,0,0-.87.81,4.84,4.84,0,0,0-.27,3.54c.79,3.56,1.63,5.14,2.89,5.46S81,53,81,53a.2.2,0,0,1,.26.07.19.19,0,0,1-.06.25A8.46,8.46,0,0,1,77.82,54.58Z"/><path class="cls-2" d="M70.93,44.26a15.94,15.94,0,0,1-2.33-.18,15.74,15.74,0,0,1-6-2.12,11.15,11.15,0,0,1-4-3.85.19.19,0,0,1,.09-.25.18.18,0,0,1,.25.09,11.06,11.06,0,0,0,3.85,3.7c2.94,1.91,8.68,3,11.66,1.57a.19.19,0,0,1,.25.09.19.19,0,0,1-.08.25A8.61,8.61,0,0,1,70.93,44.26Z"/><path class="cls-2" d="M49.42,45.56a2.37,2.37,0,0,1-.61-.08,5.46,5.46,0,0,1-3-2.61.18.18,0,0,1,.08-.25.19.19,0,0,1,.25.08h0a5.19,5.19,0,0,0,2.78,2.42c.77.23,2-.13,3.54-1.07a32,32,0,0,0,3.61-2.58,3.87,3.87,0,0,0,1.47-3.33.2.2,0,0,1,.16-.21.19.19,0,0,1,.21.16,4.14,4.14,0,0,1-.09,1.28,4.24,4.24,0,0,1-1.52,2.39,32.54,32.54,0,0,1-3.64,2.61A6.87,6.87,0,0,1,49.42,45.56Z"/><path class="cls-2" d="M59.24,53.83A3.47,3.47,0,0,1,58,53.59h0a27.23,27.23,0,0,1-2.79-1.48c-1.91-1.18-2.92-2.24-3-3.15-.12-1.34.92-3,1.55-3.81A12.08,12.08,0,0,1,57.12,42a4.47,4.47,0,0,1,2.22-.62,5.22,5.22,0,0,1,3.4,1.44,3.1,3.1,0,0,1,1,2.43,9.7,9.7,0,0,1-.58,3.09c-.07.23-.15.49-.24.76a14.41,14.41,0,0,1-1.2,3A2.87,2.87,0,0,1,59.24,53.83Zm-1.07-.59a2.92,2.92,0,0,0,1.07.22c2,0,2.76-2.58,3.33-4.45.09-.28.17-.55.25-.78.83-2.5.73-4.22-.32-5.12a4.86,4.86,0,0,0-3.16-1.35,4,4,0,0,0-2,.58,11.69,11.69,0,0,0-3.24,3,5.93,5.93,0,0,0-1.48,3.55c.07.78,1,1.77,2.83,2.87A25.31,25.31,0,0,0,58.17,53.24Z"/><path class="cls-2" d="M68.78,56.4h-.19c-.14,0-3.56-.07-4.82-1.9-.8-1.17-.43-3.61-.24-4.61a10.57,10.57,0,0,1,1.61-4.2,4.6,4.6,0,0,1,3.37-1.06,6.33,6.33,0,0,1,3,.65,4.3,4.3,0,0,1,1.62,2.61,15.92,15.92,0,0,1,.53,4c0,1.35,0,2.62-.84,3.45S70.82,56.4,68.78,56.4ZM68.51,45a4.28,4.28,0,0,0-3.09.93,10,10,0,0,0-1.52,4c-.39,2-.32,3.59.18,4.32C65.23,56,68.56,56,68.6,56h.18c1.94,0,3.14-.31,3.79-1s.76-1.66.73-3.18c0-2.49-.58-5.45-2-6.28A5.93,5.93,0,0,0,68.51,45Z"/><path class="cls-2" d="M80.72,59.48a.19.19,0,0,1-.19-.17,6.26,6.26,0,0,0-1.17-2.19.19.19,0,1,1,.29-.23,6.29,6.29,0,0,1,1.25,2.38.18.18,0,0,1-.16.21Z"/><path class="cls-2" d="M74.52,60.41h0a.18.18,0,0,1-.16-.21,4.49,4.49,0,0,0-.54-1.94.19.19,0,0,1,.33-.17,4.81,4.81,0,0,1,.58,2.16A.18.18,0,0,1,74.52,60.41Z"/><path class="cls-2" d="M67.61,61.67h-.06a.18.18,0,0,1-.11-.24,6.37,6.37,0,0,0-.24-2.31.19.19,0,0,1,.13-.23.18.18,0,0,1,.23.13,6.57,6.57,0,0,1,.23,2.54A.18.18,0,0,1,67.61,61.67Z"/><path class="cls-2" d="M59.22,61.67a.18.18,0,0,1-.19-.18,6.38,6.38,0,0,1,.48-2.27.19.19,0,0,1,.25-.1.2.2,0,0,1,.1.25,5.89,5.89,0,0,0-.46,2.12A.18.18,0,0,1,59.22,61.67Z"/><path class="cls-2" d="M51.29,57.57h0a.18.18,0,0,1-.13-.23c.3-1.16,2.28-1.74,2.37-1.76a.19.19,0,0,1,.1.36h0s-1.86.54-2.11,1.5A.19.19,0,0,1,51.29,57.57Z"/><path class="cls-2" d="M46.3,50.53a.17.17,0,0,1-.1,0,.19.19,0,0,1-.06-.26,3.15,3.15,0,0,1,2.64-1.16.2.2,0,0,1,.18.2.19.19,0,0,1-.2.17,2.81,2.81,0,0,0-2.3,1A.22.22,0,0,1,46.3,50.53Z"/><path class="cls-2" d="M49.24,59.81h-.16a.28.28,0,0,1-.26-.3.27.27,0,0,1,.3-.26,3.73,3.73,0,0,0,2.43-1.13.28.28,0,1,1,.41.39A4.44,4.44,0,0,1,49.24,59.81Z"/><path class="cls-2" d="M63.28,62.62a9.8,9.8,0,0,1-4.13-.85,11.1,11.1,0,0,1-4-.66,8.16,8.16,0,0,1-2.45-1.47,6.5,6.5,0,0,1-1.61-2,7.9,7.9,0,0,1-2.76-2,8.61,8.61,0,0,1-1.55-2.4A10.06,10.06,0,0,1,46,50.53a7.77,7.77,0,0,1-2.67-1.81,5.93,5.93,0,0,1-1.31-2.12,5.45,5.45,0,0,1-.32-2.46.43.43,0,0,0,0,0,1.36,1.36,0,0,1,1.35-.9,2.46,2.46,0,0,1,.84.17c.29.11.91.54,2.86,3,.91,1.13,1.74,2.25,2,2.54a5.41,5.41,0,0,1,2.34,1.52,9.91,9.91,0,0,1,1.58,2.29,14.45,14.45,0,0,1,1.08,2.81,9.68,9.68,0,0,1,4.61,2A8.52,8.52,0,0,1,59.78,59a10.2,10.2,0,0,1,3.81-.67,15.29,15.29,0,0,1,3.76.48,10.69,10.69,0,0,1,4.67-1,10.85,10.85,0,0,1,1.86.15,6.09,6.09,0,0,1,3.88-1.43,5.62,5.62,0,0,1,1.68.25,6.51,6.51,0,0,1,3.44-1.64.27.27,0,0,1,.15,0c.08,0,2.1,1,1.88,2.48-.09.66-.84,1.2-2.22,1.61a14.41,14.41,0,0,1-1.87.39,8.14,8.14,0,0,1-4.29,1.25,6.85,6.85,0,0,1-2-.27,9.47,9.47,0,0,1-5.19,1.35,11,11,0,0,1-1.73-.12A12,12,0,0,1,63.28,62.62Zm-4.06-1.41a.31.31,0,0,1,.13,0,9,9,0,0,0,3.93.82,11.53,11.53,0,0,0,4.23-.83.26.26,0,0,1,.15,0,11.51,11.51,0,0,0,1.71.12,8.75,8.75,0,0,0,5-1.33.26.26,0,0,1,.27,0,6,6,0,0,0,1.91.28,7.61,7.61,0,0,0,4-1.19.17.17,0,0,1,.11,0,15.75,15.75,0,0,0,1.86-.39c1.1-.33,1.76-.74,1.82-1.15.14-.95-1.17-1.7-1.5-1.86a6.07,6.07,0,0,0-3.16,1.59.28.28,0,0,1-.3.06A4.59,4.59,0,0,0,77.76,57a5.47,5.47,0,0,0-3.62,1.39.3.3,0,0,1-.24.06A9.75,9.75,0,0,0,72,58.28a9.94,9.94,0,0,0-4.51,1,.31.31,0,0,1-.21,0,14.44,14.44,0,0,0-3.71-.49,9.39,9.39,0,0,0-3.79.71.29.29,0,0,1-.35-.1A7.55,7.55,0,0,0,58,57.93a9.19,9.19,0,0,0-4.5-1.9.28.28,0,0,1-.23-.22,15.58,15.58,0,0,0-1.09-2.87c-.69-1.34-1.88-3-3.66-3.54a.33.33,0,0,1-.15-.11s-1-1.29-2-2.6c-1.88-2.35-2.46-2.74-2.62-2.81a2,2,0,0,0-.64-.13.82.82,0,0,0-.81.5,5.18,5.18,0,0,0,.31,2.19,6.33,6.33,0,0,0,3.81,3.64.3.3,0,0,1,.18.24A8.85,8.85,0,0,0,47.29,53a7.53,7.53,0,0,0,4.11,4.09.29.29,0,0,1,.15.16,5.79,5.79,0,0,0,1.53,2,8.84,8.84,0,0,0,6.13,2Z"/><path class="cls-2" d="M50,58.71a4.4,4.4,0,0,0-1.06,3,5.45,5.45,0,0,1-1.46,2.87,17.72,17.72,0,0,1-1.31,1.49,23.1,23.1,0,0,1,.41,11A21.38,21.38,0,0,1,43,85.58c-1.29,1.7-2.68,2.63-3.92,2.63h0a2.48,2.48,0,0,1-1.94-1.27c-1.69-2.47-2.22-7.84-2.37-10-.27-4.07-.05-7.92.55-9.59a20.14,20.14,0,0,1,4.46-6.23c1.49-1.58,2.87-2.82,3.26-3.16a18.67,18.67,0,0,1,.39-5.65c.31-1,.17.91.11,2.32s.07,3.42.07,3.42a.31.31,0,0,1-.1.24c-.06,0-6.3,5.5-7.66,9.25-.57,1.58-.78,5.43-.52,9.36.31,4.55,1.14,8.1,2.28,9.76a1.93,1.93,0,0,0,1.48,1c1.07,0,2.32-.83,3.51-2.41,3.14-4.14,5.18-12,3-19.15a.29.29,0,0,1,.07-.28c.76-.76,2.72-3,2.72-4.09a4.39,4.39,0,0,1,.51-2.48C49.5,58.32,50.66,58.08,50,58.71Z"/><path class="cls-2" d="M82.91,55.61a.28.28,0,0,1-.26-.19,3.65,3.65,0,0,0-1.46-1.67.26.26,0,0,1-.14-.21,12.68,12.68,0,0,0-3.41-7.33,11.16,11.16,0,0,0-2.78-2.15.25.25,0,0,1-.12-.11A9.65,9.65,0,0,0,73.06,42a14.81,14.81,0,0,0-5.49-3.16,18.53,18.53,0,0,0-6.81-.9,12,12,0,0,0-2.62.43.2.2,0,0,1-.11,0,15,15,0,0,0-9.37,2.17,10,10,0,0,0-2.78,2.6.28.28,0,0,1-.23.13,6.51,6.51,0,0,0-1.71.58.29.29,0,0,1-.37-.14.28.28,0,0,1,.14-.37,8.26,8.26,0,0,1,1.78-.62,10.71,10.71,0,0,1,2.86-2.64,13.55,13.55,0,0,1,3.93-1.75A17.31,17.31,0,0,1,58,37.84a11.57,11.57,0,0,1,2.7-.45,19.19,19.19,0,0,1,7,.93,15.3,15.3,0,0,1,5.71,3.3,11.3,11.3,0,0,1,1.72,2A12.2,12.2,0,0,1,78,45.82a12.79,12.79,0,0,1,2.19,3.08,13.51,13.51,0,0,1,1.36,4.44,4,4,0,0,1,1.58,1.89.27.27,0,0,1-.16.36Z"/><path class="cls-2" d="M69.82,64.79l-1.53,0c-1.75-.05-4.14-.18-6.92-.37-4.92-.35-10.07-.83-11.06-1s-1.73-.44-2-.78a.45.45,0,0,1-.09-.34c0-.15.36-.64.51-.61a.29.29,0,0,1,.23.26s.31.32,1.59.54c1,.16,5.92,1,10.82,1.37,2.77.19,5.15.32,6.89.37,2.89.09,3.38-.06,3.46-.11a.29.29,0,0,1,.39.1.28.28,0,0,1-.11.38A5.2,5.2,0,0,1,69.82,64.79Z"/><path class="cls-2" d="M71.9,63.4a.3.3,0,0,1-.15,0,2.72,2.72,0,0,1-1-1.78.28.28,0,0,1,.24-.32.29.29,0,0,1,.31.25,2.27,2.27,0,0,0,.72,1.39.27.27,0,0,1,.08.38A.31.31,0,0,1,71.9,63.4Z"/><path class="cls-2" d="M85.6,74.71l-.93,0a18,18,0,0,1-8.12-2.51,13,13,0,0,1-4.28-3.82c-1.3-2.13-.17-6.83-.12-7a.27.27,0,0,1,.33-.21.28.28,0,0,1,.21.34s-1.12,4.67.06,6.6S78.17,73.61,84.62,74l.9,0c1.7,0,2.75-.34,3-1S88.4,71.11,87,69.65a4.72,4.72,0,0,0-2.49-1.54,2.1,2.1,0,0,1-1.16-.62,5,5,0,0,1-.6-1.14c-.42-.93-.89-2-1.92-2.31a7.4,7.4,0,0,0-2-.29c-.64,0-1.14,0-1.44-.41C77,62.78,77,61,77,60.59a.28.28,0,0,1,.28-.27.28.28,0,0,1,.28.29A5.7,5.7,0,0,0,77.86,63c.13.16.53.18,1,.2A7.86,7.86,0,0,1,81,63.5c1.28.39,1.83,1.63,2.27,2.63a5.14,5.14,0,0,0,.53,1,1.55,1.55,0,0,0,.88.43,5.28,5.28,0,0,1,2.74,1.7c.91,1,2.33,2.81,1.71,4.14a2.11,2.11,0,0,1-1.43,1A7.44,7.44,0,0,1,85.6,74.71Z"/><path class="cls-2" d="M90.05,60.53a12,12,0,0,1-1.72.56,16.59,16.59,0,0,1-4.56.49,8.84,8.84,0,0,1-3.53-.87A4.25,4.25,0,0,1,79.15,60a.28.28,0,0,0-.4,0,.27.27,0,0,0,0,.39c.06.07,1.56,1.58,5,1.77l.65,0a17.67,17.67,0,0,0,4-.51c.94-.23,2.55-.71,2.81-1.35a.54.54,0,0,0-.17-.61c-.42-.35-1.26-.32-2.42-.27-1.69.07-3.79.15-4.78-1.05a.28.28,0,1,0-.43.35,3.71,3.71,0,0,0,2.44,1.2,15.44,15.44,0,0,0,2.72,0,5.28,5.28,0,0,1,1.81,0C90.76,60.16,90.22,60.46,90.05,60.53Z"/><path class="cls-2" d="M43.17,57a.23.23,0,0,1-.14,0,34.89,34.89,0,0,1-4.24-3.15q-.66-.6-1.23-1.17a8.82,8.82,0,0,0-4.84-2.92c-.59-.12-1.25-.24-1.94-.36-3-.55-6.33-1.16-7.81-2-1.95-1.18-1.49-2.48-1.47-2.53l.53.19h0s-.3.93,1.23,1.86,4.84,1.47,7.62,2l1.95.36A9.37,9.37,0,0,1,38,52.2c.38.38.78.76,1.21,1.15a35.34,35.34,0,0,0,4.16,3.09.29.29,0,0,1,.09.39A.28.28,0,0,1,43.17,57Z"/><path class="cls-2" d="M37.71,36.67a9.27,9.27,0,0,0-2.51-5A6.12,6.12,0,0,0,30.57,30a9.72,9.72,0,0,0-4.76,1.47,21.14,21.14,0,0,0-4.58,4.13,6.64,6.64,0,0,0-1.55,3.15,9.1,9.1,0,0,0,0,3.09,12.13,12.13,0,0,0,1,3.31.26.26,0,0,0,.17.14.29.29,0,0,0,.22,0c1.2-.69,3.55-.09,5.83.49.88.22,1.79.45,2.65.62a5.17,5.17,0,0,0,.95.09,5.36,5.36,0,0,0,3-1A6.27,6.27,0,0,0,35,44.11a.28.28,0,0,0-.45-.33,5.29,5.29,0,0,1-4.9,2c-.85-.16-1.75-.39-2.62-.61-2.34-.6-4.56-1.16-6-.57a12.2,12.2,0,0,1-.82-2.88A6.81,6.81,0,0,1,21.65,36c3.39-3.82,5.73-5.23,9-5.41a5.75,5.75,0,0,1,4.31,1.61,10.3,10.3,0,0,1,2.48,4.25C37.72,37.32,37.85,37.32,37.71,36.67Z"/><path class="cls-2" d="M42,45.19c-.06,0,0,.3-.09.25s-1-.77-1.68-3.34-1-5-3-6.69c-.12-.1-.51-.53-.41-.64a.29.29,0,0,1,.4,0A9.09,9.09,0,0,1,39.58,38a23.1,23.1,0,0,1,1.21,3.69C41.4,44,42,44.56,42.05,44.57a.28.28,0,0,1,0,.39C42,45,42.06,45.19,42,45.19Z"/><path class="cls-2" d="M21.17,78.12a2.94,2.94,0,0,1-1.09-.19,1.55,1.55,0,0,1-.94-1.15c-.42-1.79,1-5,2.32-7.48a42.07,42.07,0,0,1,4.71-7.16c2.44-2.76,10.09-4.63,13-5.33.44-.11.87-.22.94-.25.29-.12.57-.89.67-1.38a.29.29,0,0,1,.33-.22.28.28,0,0,1,.22.33c0,.25-.34,1.51-1,1.79-.11,0-.38.11-1,.27-1.39.34-4,1-6.53,1.86-3.09,1.08-5.16,2.19-6.15,3.3A42.39,42.39,0,0,0,22,69.56c-1.76,3.31-2.56,5.83-2.26,7.09a1,1,0,0,0,.59.76,4.08,4.08,0,0,0,2.8-.25,17.48,17.48,0,0,0,3.64-1.94,27.88,27.88,0,0,0,5.83-5.09,24.85,24.85,0,0,0,3.1-4.62c.48-1.17.72-1.74,1.06-1.94.67-.38,1.51-.88,1.57-.9a13.65,13.65,0,0,0,1.81-1.27c.68-1.22-1.23.76-1.43,1.65-.14.63-1,.66-1.67,1a5.85,5.85,0,0,0-.82,1.66A25.18,25.18,0,0,1,33,70.47a28.6,28.6,0,0,1-6,5.22C25.27,76.86,23,78.12,21.17,78.12Z"/></g></svg>