<svg id="Ebene_1" data-name="Ebene 1" xmlns="http://www.w3.org/2000/svg" viewBox="0 0 113.86 110.51"><defs><style>.cls-1{opacity:0.85;}.cls-2{fill:none;stroke:#fff;stroke-miterlimit:10;stroke-width:1.11px;}</style></defs><g class="cls-1"><path class="cls-2" d="M40.66,67.07a12.12,12.12,0,0,1,1.09,3.54,1.2,1.2,0,0,0,.39.94,1.19,1.19,0,0,1,.42,1.35A.9.9,0,0,0,42.93,74c.24.14.47.26.67,0s.84-.75.6-1.29a4.09,4.09,0,0,1,0-3.44c.24-.58-.2-1-.58-1.27-.77-.66-.91-1.33-.16-2.11a1.13,1.13,0,0,0,.33-1.28,2.12,2.12,0,0,1,.7-2.51c.43-.43.83-.87,1.33-1.38a7.27,7.27,0,0,0,.84,2.17c.29.42,0,.85-.24,1.2A1.66,1.66,0,0,0,46.29,66a2.05,2.05,0,0,1,.08,2.15.94.94,0,0,0,.22,1.19A1.44,1.44,0,0,1,47,71.29c-.13.25-.23.6,0,.81s.48-.15.71-.26.5-.28.75-.42c1.4-.76,1.49-1,.94-2.46a1.33,1.33,0,0,1,.14-1.5A1.29,1.29,0,0,0,49.69,66a2,2,0,0,1,.19-2A2,2,0,0,0,50.21,63c0-.33,0-.72.24-.92a6.09,6.09,0,0,0,2.28-3.33,7.71,7.71,0,0,1-.2,6.51,1.42,1.42,0,0,0,.13,1.61,1.27,1.27,0,0,1,0,1.68,1.78,1.78,0,0,0-.32,2c.33.77-.09,1.28-.76,1.67-.49.28-1.06.52-1.11,1.21,0,.25,0,.52.25.65s.43-.11.64-.22a6.58,6.58,0,0,0,3-3.94c.07-.2.29-.4.25-.57-.34-1.75.69-3.07,1.49-4.82.14,1.38.74,2.3.76,3.56s-.57,2.45-.7,3.69a1.25,1.25,0,0,1-.47,1c-.95.58-.85,1.68-1.33,2.49-.2.35.08.54.28.72.68.59,1.38,1.15,2.07,1.73.51.44.71.27.79-.35.17-1.28.37-2.56.6-3.83a12.66,12.66,0,0,1,1.51-4.24,12.79,12.79,0,0,0,1.76-5.6A5.66,5.66,0,0,0,59,58.4a19.9,19.9,0,0,1-2.61-2.24A5,5,0,0,0,51,54.85a5.76,5.76,0,0,1-6.22-1.55,3.52,3.52,0,0,1-1.1-2.71,2,2,0,0,1,1.17-2,2.41,2.41,0,0,1,2.61.84,4.87,4.87,0,0,1,.83,2.41c.11.79.49.91,1.1.48a7.84,7.84,0,0,0,1-.82,3.35,3.35,0,0,1,2.42-1c1.93,0,2.37-.53,2.33-2.49A16.39,16.39,0,0,0,55,46.28a2.58,2.58,0,0,0-1.75-2.13c-1.93-.77-3.83-1.62-5.83-2.24a3.77,3.77,0,0,1-2.85-4.26,2.21,2.21,0,0,1,1.84-2.21A2.35,2.35,0,0,1,49,36.88c.21.45.35.95.6,1.38.39.68,1,.68,1.46.05a2.36,2.36,0,0,0,.4-1.53c0-1-.06-2,0-3A2,2,0,0,1,53.4,31.7a2.28,2.28,0,0,1,2.29,2,3.66,3.66,0,0,1-.44,2.18,15.12,15.12,0,0,0-1.18,2.89A2.62,2.62,0,0,0,55.21,42c.81.59,1.67,1.12,2.5,1.68,2,1.34,2.52,2.79,1.75,5.09a15.56,15.56,0,0,0-.68,2.49A3.41,3.41,0,0,0,61,55c1.31.5,2.47,0,3.37-1.55A13.16,13.16,0,0,0,65.83,46a3.54,3.54,0,0,0-1.48-2.54,34.57,34.57,0,0,0-5.24-3.19,3.08,3.08,0,0,1-1.34-4.56,1.85,1.85,0,0,1,3.11-.61,4.93,4.93,0,0,1,1.39,2,6.61,6.61,0,0,0,1.09,2c.69.83,1.26.83,1.92,0A3.12,3.12,0,0,0,66,36.28a11,11,0,0,0-1.57-3.18,12.16,12.16,0,0,1-1.81-4.91,4.1,4.1,0,0,1,.15-1.81,2.1,2.1,0,0,1,2.11-1.52,2,2,0,0,1,1.79,1.85c.1.82.12,1.65.23,2.47.08.57,0,1.35.87,1.37s1-.66,1.18-1.31a5.31,5.31,0,0,1,1.3-2.79c1.08-1.15,2.11-1.34,3-.54a2.47,2.47,0,0,1,.17,3.49A24.43,24.43,0,0,1,70.47,32a4.4,4.4,0,0,0-1.72,3.33,13.82,13.82,0,0,1-.34,2.56,7.8,7.8,0,0,0,.48,4.43c.14.37.27.79.77.79s.6-.34.78-.66a7,7,0,0,1,.48-.84,1.53,1.53,0,0,1,2.61,1.59,4.64,4.64,0,0,1-2.89,2.09,4.21,4.21,0,0,0-1.75.79,3.65,3.65,0,0,0-1,3.75c.18.62.35,1.24.48,1.87A3.24,3.24,0,0,1,67,55.29c-2.42,1.55-2.5,3.74-2,6.16.28,1.31,1,1.63,2.21,1a3.46,3.46,0,0,0,1.5-1.64,11.14,11.14,0,0,1,5.07-5.08,4.85,4.85,0,0,0,2.4-6.48,7.38,7.38,0,0,1-.58-3.47,2.57,2.57,0,0,1,.78-1.72,1.44,1.44,0,0,1,2.45.51,7.77,7.77,0,0,1,.54,2,1.41,1.41,0,0,0,1,1.25c.59.14,1-.27,1.26-.66,1.29-1.64,1-3.43.45-5.23a12.6,12.6,0,0,0-1.3-2.35c-.78-1.31-1.43-2.68-.88-4.28A1.94,1.94,0,0,1,81,34a1.34,1.34,0,0,1,2,1.32,5.82,5.82,0,0,0,.3,2.65c.14.29.26.64.65.63s.47-.3.62-.54a29.66,29.66,0,0,0,1.78-4,14.79,14.79,0,0,1,.9-1.83,2.21,2.21,0,0,1,3.44-.55c1,.77.91,1.86-.14,3l-2.66,2.82a7.26,7.26,0,0,0-1.79,3.15c-.3,1.07.06,1.62,1.14,1.9a7.59,7.59,0,0,0,2.47.08c.94-.07,1.87,0,2.18,1.12s-.29,1.7-1.12,2.21a5,5,0,0,1-3,.67,4.24,4.24,0,0,0-4.09,2.26c-1.39,2.19-3,4.24-5.46,5.34a1.15,1.15,0,0,0-.65,1.15,4,4,0,0,1-2.55,4c-.46.21-1.07.52-.73,1.22s.9.48,1.43.32,1-.36,1.51-.54c.28-.1.56-.22.82,0a.83.83,0,0,1,.15.91,2.35,2.35,0,0,1-2,1.75,4.78,4.78,0,0,1-1.07.07,5.13,5.13,0,0,0-4.66,2.07,7.67,7.67,0,0,1-4.37,2.61,1.67,1.67,0,0,0-1.47,1.82,3,3,0,0,1-.48,1.86c-1.45,2-1,4.33-1,6.57,0,.47.23.57.61.29s.87-.64,1.31-.94A1.79,1.79,0,0,1,67,77.07c.68.33,1.07-.11,1.43-.59,1.11-1.45,1.23-1.49,3-.93l.21.06a12.63,12.63,0,0,1,7.47,3.64,4.41,4.41,0,0,0,2,1,3.44,3.44,0,0,1,2,1.83c.25.44.07.69-.4.73-.32,0-.65,0-1,0q-24.84,0-49.69,0c-.54,0-1.46.43-1.51-.65A1.51,1.51,0,0,1,32,80.44a3.47,3.47,0,0,0,1.72-.8,46.82,46.82,0,0,1,6.15-4.53c.46-.24.39-.54.17-.88a1.26,1.26,0,0,1-.2-1.22,1.58,1.58,0,0,0-.3-1.71,1.34,1.34,0,0,1,0-1.78A19.66,19.66,0,0,0,40.66,67.07Z"/><path class="cls-2" d="M37,54.55a3,3,0,0,1,3.1,3,3.07,3.07,0,1,1-3.1-3Z"/><path class="cls-2" d="M40.12,41.93a2.41,2.41,0,0,1-2.45,2.46,2.46,2.46,0,1,1,0-4.92A2.45,2.45,0,0,1,40.12,41.93Z"/><path class="cls-2" d="M33.67,49.89a3,3,0,0,1-3.08,3,3.07,3.07,0,1,1,.08-6.13A3,3,0,0,1,33.67,49.89Z"/></g></svg>