<svg id="Ebene_1" data-name="Ebene 1" xmlns="http://www.w3.org/2000/svg" viewBox="0 0 113.86 110.51"><defs><style>.cls-1{fill:#fff;}</style></defs><path class="cls-1" d="M72.93,42.63c1.95-1.86,3.69-3.43,5.3-5.1.8-.83,1.15-.24,1.57.27s1.33.84.35,1.78Q60.53,58.27,41,77.05c-.82.79-1.15.27-1.58-.26S38.06,76,39.08,75C42.3,72,45.41,69,48.61,66c.76-.71.78-1.09-.2-1.47a4.94,4.94,0,0,1-1-.52.91.91,0,0,0-1.42.16,4.21,4.21,0,0,1-3.26,1.32c-2.3,0-4.59,0-6.88,0a4.36,4.36,0,0,1-4.56-4.34q-.16-5.25,0-10.5a4.33,4.33,0,0,1,4.44-4.33c2.37-.08,4.75,0,7.12,0a4,4,0,0,1,3,1.24c.56.61,1,.54,1.63.19Q57,42.55,66.46,37.45c.32-.17.63-.35,1-.5a3.78,3.78,0,0,1,5.51,3.36C73,41,72.93,41.64,72.93,42.63ZM47.38,55.76a6.92,6.92,0,0,1,0,1.44c-.58,2.83.63,4.48,3.26,5.42a1.36,1.36,0,0,0,1.74-.27c5-4.78,9.81-9.64,14.94-14.21,2.25-2,3.38-4.1,2.89-7a1.92,1.92,0,0,1,0-.24c0-1.51-.69-1.91-2-1.21q-10,5.4-20,10.82a1.27,1.27,0,0,0-.79,1.32C47.41,53.1,47.38,54.43,47.38,55.76ZM34,55.76c0,1.64,0,3.29,0,4.93a1.77,1.77,0,0,0,2,2q3.25,0,6.51,0c1.45,0,2.09-.67,2.1-2.17q0-4.69,0-9.39c0-1.46-.68-2.11-2.16-2.13-2.09,0-4.17,0-6.26,0-1.58,0-2.19.63-2.21,2.18S34,54.23,34,55.76Z"/><path class="cls-1" d="M72.93,62.41c0,2.9,0,5.79,0,8.68,0,3.27-2.89,5-5.76,3.54-3.66-1.93-7.27-3.95-10.93-5.89-.67-.35-.72-.65-.37-1.29.87-1.58.84-1.59,2.41-.75,3.25,1.76,6.5,3.53,9.75,5.28,1.53.83,2.17.46,2.17-1.27,0-5.71,0-11.41,0-17.12,0-.43-.27-1.1.36-1.25a3.72,3.72,0,0,1,2.14,0c.39.15.21.64.22,1C72.94,56.39,72.93,59.4,72.93,62.41Z"/></svg>