<svg id="Ebene_1" data-name="Ebene 1" xmlns="http://www.w3.org/2000/svg" viewBox="0 0 113.86 110.51"><defs><style>.cls-1{opacity:0.85;}.cls-2{fill:#fff;}</style></defs><g class="cls-1"><path class="cls-2" d="M87.64,75.62c-.91-2.33-2.91-4.2-5-6s-4.74-3.51-5.26-6c-.57-2.74,2.78-4.5,5.31-6.19a80.93,80.93,0,0,0,9.2-6.56c1.86-1.65,4.22-4,4-6.16-.27-2.87-4.81-3-7.76-2.79a69.12,69.12,0,0,0-11,1.64c-3.17.7-6.33,1.83-9.55,2.32-7.45,1.11-8.88-6.29-10.9-10.14-1.48-2.83-5.45-8.35-10.53-7.66s-6,5.59-5.72,8.62c.31,3.7,1.18,7.45.08,11.22-1.33,4.54-8.36,5.29-12.9,5.55s-11.64.22-14.76,3.66c-3.25,3.59,1.35,6.56,5.06,7.79,5.86,2,13.05.36,18.22,3.35,1.07.62,1.58,1.69,1.25,4.23-.41,3.21-2.5,7.55-3.07,9.19-.82,2.35-1.42,4.83-.82,7.16.77,3,4.37,3,7.76,2,7-2.19,9.92-7.14,14.15-11.47.46-.48,2.47-2.66,4.92-2.92,3.84-.4,8.53,1.66,10.48,2.41,3.3,1.27,7.43,2.69,11.35,2.75C86.56,81.65,88.66,78.46,87.64,75.62Zm-42.11-46s.06-.05.08-.05Zm33,50.13a51,51,0,0,1-9.33-3.45c-2.27-1-5.73-2.55-8.67-2.07S55.54,77,54,78.83a70,70,0,0,1-6.39,6.91,17.78,17.78,0,0,1-7.66,4.2c-3.91,1-5-.93-4.71-3.65.65-5.64,5.39-11,5.34-16.66-.06-5.87-11.13-4.81-16.46-5.24-3.06-.24-6.25-.86-8.4-2.5s-2.18-3.81,1-5.15c5.4-2.29,11.89-1.28,17.58-2.36,7.6-1.45,9.91-6.45,9.65-11.74-.16-3.42-2.59-10.74,2.67-13.24,2.56-1.22,5.26,1.46,6.37,2.74a22.73,22.73,0,0,1,3.89,7.47c.88,2.38,1.65,5.06,3.93,6.84,2.58,2,6.18,1.34,9.56.43,5.77-1.54,11.89-3.07,17.9-3.4,1.62-.09,4.23-.21,5.17.94C94.72,46,91.65,48.81,90.26,50c-4.37,3.71-12.59,6.26-15.09,11.06-2.61,5,5.93,9.09,8.94,12.38,1.42,1.56,3.1,4,1.3,5.95C83.83,81.13,80.48,80.21,78.56,79.77Z"/><path class="cls-2" d="M53.28,49.81c-.62-.71-2.94,0-2.73,1.32.05,1.3,2.24,1.62,2.88.8s.27-1.13.23-1.1-.14.45-.64.81a1.11,1.11,0,0,1-1.31,0A1.3,1.3,0,0,1,53,50.44a1.93,1.93,0,0,1,.34,0c.2.21.27.4.37.38S53.94,50.34,53.28,49.81Z"/><path class="cls-2" d="M53.16,47.92c.65-.78.26-1.3.23-1.26s-.1.52-.66,1a1.39,1.39,0,0,1-1.75,0,1.48,1.48,0,0,1,1.35-1.45,2.17,2.17,0,0,1,.57,0c.29.27.37.52.49.49s.24-.57-.56-1.14c-.78-.77-3.34.09-3,1.62C50,48.61,52.48,48.88,53.16,47.92Z"/><path class="cls-2" d="M52.55,43.52c.66-.91.16-1.47.15-1.43-.18,0,0,.59-.6,1.2a1.7,1.7,0,0,1-2.25-.06,1.62,1.62,0,0,1,1.39-1.67,1.91,1.91,0,0,1,.89,0c.35.28.45.56.57.52s.19-.65-.78-1.24a2.44,2.44,0,0,0-2.19,0,1.86,1.86,0,0,0-1,2C49.06,44.47,51.89,44.63,52.55,43.52Z"/><path class="cls-2" d="M48.44,35.76c-2.4,1-1.72,3.17-.52,3.55A2.3,2.3,0,0,0,50,39.4c0-.13-.86.08-1.69-.45a1.08,1.08,0,0,1-.32-.24A1.73,1.73,0,0,1,49,36.82a1.93,1.93,0,0,1,1.24-.18A1.6,1.6,0,0,1,51,38.2c-.18.85-1.06,1.09-1,1.2a1.73,1.73,0,0,0,1.54-1.15C51.94,37.34,51.11,35.24,48.44,35.76Z"/><path class="cls-2" d="M66,56c.76-.8-.63-2.16-2.29-1.57s-1.63,2.32-.45,2.43c1,.2,1.52-.18,1.47-.21s-.59,0-1.19-.2l-.06,0a1.43,1.43,0,0,1,1.1-1.06,2.39,2.39,0,0,1,.83-.1.48.48,0,0,1,.06.58c-.24.51-.81.7-.74.8A1.44,1.44,0,0,0,66,56Z"/><path class="cls-2" d="M70.17,55.11c0-.12-.68.1-1.43-.16a.87.87,0,0,1-.24-.1,1.64,1.64,0,0,1,1.25-1.32,2.66,2.66,0,0,1,1.14-.13.6.6,0,0,1,.14.76c-.28.62-.94.85-.86,1a1.76,1.76,0,0,0,1.4-.83c.81-.92-.84-2.4-2.71-1.69s-1.72,2.68-.37,2.78A1.91,1.91,0,0,0,70.17,55.11Z"/><path class="cls-2" d="M76.07,53.13c0-.13-.76.18-1.67-.07a1.19,1.19,0,0,1-.44-.2,1.81,1.81,0,0,1,1.32-1.56,3.2,3.2,0,0,1,1.48-.2A.73.73,0,0,1,77,52c-.29.74-1,1-1,1.12a2,2,0,0,0,1.5-1c.81-1.07-1.15-2.62-3.2-1.74a2.25,2.25,0,0,0-1.54,1.84,1.54,1.54,0,0,0,1.34,1.27A2.29,2.29,0,0,0,76.07,53.13Z"/><path class="cls-2" d="M79.14,50.23c0,.07.32.81,1.73.83,1.25.09,4-1.26,2.84-3.12-1.57-1.5-4.37-.38-4.74.69C78.42,49.65,79.06,50.21,79.14,50.23Zm1.75.38a2.4,2.4,0,0,1-1.17-.15,1.85,1.85,0,0,1,1.13-1.91,3.25,3.25,0,0,1,2-.37l.17.14C83.8,49.41,81.92,50.61,80.89,50.61Z"/><path class="cls-2" d="M44.41,58.17a1.37,1.37,0,0,0-1.29-.39c.05,0-.52-.32-1.43.1-1.11.43-.89,2.13.79,2.28S45.26,58.7,44.41,58.17Zm-1.74,1.37a1.33,1.33,0,0,1-.57-.2v0a1.57,1.57,0,0,1,1.77-.86h.05C44.25,58.89,43.7,59.64,42.67,59.54Z"/><path class="cls-2" d="M39.32,57.49a1.67,1.67,0,0,0-1.5-.42,1.78,1.78,0,0,0-1.64.21c-1.21.54-.85,2.43,1.08,2.54S40.31,58.06,39.32,57.49Zm-1.9,1.71a1.61,1.61,0,0,1-.85-.31s0,0,0-.07c.11-.68,1-1.17,2-1.09a1.17,1.17,0,0,1,.27,0C39.33,58.27,38.71,59.28,37.42,59.2Z"/><path class="cls-2" d="M33.63,57a2.07,2.07,0,0,0-1.73-.4,2.14,2.14,0,0,0-1.84.36c-1.28.69-.67,2.74,1.51,2.77S34.78,57.56,33.63,57Zm-2,2.1a1.82,1.82,0,0,1-1.19-.43v0c0-.76,1-1.42,2.18-1.38a3.08,3.08,0,0,1,.54.06C33.81,57.85,33.19,59.08,31.66,59.07Z"/><path class="cls-2" d="M27.68,58c-.17,0-.16.66-1.11,1.17a2.45,2.45,0,0,1-2.78-.3c0-.73.91-1.49,2.14-1.6a3.35,3.35,0,0,1,1.2.08c.38.33.43.67.55.65s.32-.78-.85-1.38c-.86-.56-4.1-.36-4.14,1.75.28,1.84,3.23,2,4.21,1.14C28,58.73,27.72,58,27.68,58Z"/><path class="cls-2" d="M52,67.93c.58-1.28-1.24-2.17-2.2-1.58s-.83,1-.77,1-.49.4-.13,1.09S51.46,69.31,52,67.93Zm-2.29.45a1,1,0,0,1,.07-.41,1.55,1.55,0,0,1,1.38-.88.78.78,0,0,1,.06.71A1.21,1.21,0,0,1,49.69,68.38Z"/><path class="cls-2" d="M50.4,72c.74-1.45-1.24-2.51-2.36-1.91s-1,1.1-1,1.07a1,1,0,0,0-.18,1.26C47.07,73.37,49.71,73.56,50.4,72Zm-2.71.45a1.19,1.19,0,0,1,.11-.63,1.89,1.89,0,0,1,1.71-1,.89.89,0,0,1,.13,1A1.51,1.51,0,0,1,47.69,72.46Z"/><path class="cls-2" d="M44.62,75.28a1.17,1.17,0,0,0-.29,1.42,1.83,1.83,0,0,0,1.67,1,2.82,2.82,0,0,0,2.29-1.2c1-1.59-1.1-2.91-2.41-2.3C44.65,74.59,44.57,75.31,44.62,75.28Zm2.94,1a1.81,1.81,0,0,1-2.36.61,1.33,1.33,0,0,1,.18-.91,2.27,2.27,0,0,1,2-1A1.06,1.06,0,0,1,47.56,76.23Z"/><path class="cls-2" d="M44.42,78.67a2.22,2.22,0,0,0-2.05-.13c-1.43.3-2.55,2.48-.63,3.54,2.39.86,4.1-1.27,3.84-2.19A1.37,1.37,0,0,0,44.42,78.67Zm-2.2,2.87a1.59,1.59,0,0,1-.38-.29A1.65,1.65,0,0,1,42.25,80a2.81,2.81,0,0,1,2.57-.8,1.17,1.17,0,0,1,.18.71A2.13,2.13,0,0,1,42.22,81.54Z"/><path class="cls-2" d="M63.45,63.87c-1.29-.72-3,.52-2.53,1.25a1,1,0,0,0,.91.67s.27.43,1.22.32A1.15,1.15,0,0,0,63.45,63.87Zm-.52,1.82a2.66,2.66,0,0,1-1,.06.75.75,0,0,1,.15-.68,1.37,1.37,0,0,1,1.17-.43A.62.62,0,0,1,62.93,65.69Z"/><path class="cls-2" d="M67.65,65.79a2.69,2.69,0,0,0-2.22,0,1.24,1.24,0,0,0-.73,1.33,1.13,1.13,0,0,0,1,.84s.31.48,1.39.39A1.32,1.32,0,0,0,67.65,65.79Zm-.7,2.1a2.89,2.89,0,0,1-1.15,0A.87.87,0,0,1,66,67a1.73,1.73,0,0,1,1.42-.46A.78.78,0,0,1,67,67.89Z"/><path class="cls-2" d="M69.65,70.43c-.06,0,.32.55,1.52.51a2,2,0,0,0,1.67-1,1.56,1.56,0,0,0-.73-1.76,3,3,0,0,0-2.45-.2,1.48,1.48,0,0,0-1,1.45A1.18,1.18,0,0,0,69.65,70.43Zm1.48.08a3.36,3.36,0,0,1-1.32-.09,1.06,1.06,0,0,1,.24-1.22,1.94,1.94,0,0,1,1.63-.45A1,1,0,0,1,71.13,70.51Z"/><path class="cls-2" d="M72.7,72.67c-.09,1,1.89,2.29,3.91,1.14,1.69-1.57-.2-3-1.31-3.07s-1.84.47-1.83.54A1.33,1.33,0,0,0,72.7,72.67Zm3.39.7a2.23,2.23,0,0,1-2.39-.15,1.34,1.34,0,0,1,.53-1.28,2.17,2.17,0,0,1,1.71-.36C76.48,72.05,76.79,72.8,76.09,73.37Z"/><path class="cls-2" d="M51.8,53.4a1.56,1.56,0,0,0,1,2.87c1.18.07,1.7-.49,1.7-.55a1.34,1.34,0,0,0,.9-1.24C55.57,53.55,53.66,52.25,51.8,53.4Zm2.47,2.13c-.07-.08-.55.24-1.25.1A.89.89,0,0,1,52.53,54c.9-.56,2,0,2,.57S54.17,55.47,54.27,55.53Z"/><path class="cls-2" d="M57.63,56.31c-1.27,1.49.53,2.84,1.76,2.61s1.55-.75,1.53-.81a1.18,1.18,0,0,0,.55-1.34C61.44,55.85,59.15,54.88,57.63,56.31Zm3,1.65c-.09-.07-.47.32-1.2.31s-1.57-.74-.93-1.49a1.41,1.41,0,0,1,2.13.23C60.9,57.53,60.55,57.92,60.66,58Z"/><path class="cls-2" d="M48.84,57.44a2.53,2.53,0,0,0-2,.22,1.7,1.7,0,0,0-1.12,1c-.5.9.9,2.52,3,1.79C50.83,59.53,50,57.62,48.84,57.44Zm-.56,2.18c-1,.33-1.71-.37-1.55-.87a1.41,1.41,0,0,1,.51-.73,2.14,2.14,0,0,1,1.11.09A.79.79,0,0,1,48.28,59.62Z"/><path class="cls-2" d="M54.13,64.1c.24-1-.45-1.45-.51-1.29,0-.13-.35-.63-1.42-.72-1.26-.24-3.19,1.41-1.94,2.73S54.07,65.12,54.13,64.1Zm-2.85.1c-.56-.63.2-1.39.89-1.37s1,.29,1.06.22c-.11,0,.2.37,0,.86A1.29,1.29,0,0,1,51.28,64.2Z"/><path class="cls-2" d="M59.36,61.09a2.67,2.67,0,0,0-1.83.14,1.71,1.71,0,0,0-1.3,1c-.55.89.76,2.54,2.9,1.89C61.24,63.26,60.51,61.31,59.36,61.09Zm-.62,2.26c-1.07.33-1.87-.47-1.67-1a1.36,1.36,0,0,1,.52-.71,2.29,2.29,0,0,1,1.31.05A.88.88,0,0,1,58.74,63.35Z"/></g></svg>