<svg id="Ebene_1" data-name="Ebene 1" xmlns="http://www.w3.org/2000/svg" viewBox="0 0 113.86 110.51"><defs><style>.cls-1{opacity:0.85;}.cls-2{fill:#fff;}</style></defs><g class="cls-1"><path class="cls-2" d="M85.68,47.26a1.81,1.81,0,0,0,.42,2.2c.89.95,2.74.87,5.81-.28a74.8,74.8,0,0,0,7-3.22c1-.5,1.86-.94,2.39-1.16a14,14,0,0,1-1.34,2.07l0,.07c0,.07-3.94,6.79-5.51,9a1.48,1.48,0,0,1-1,.7,3.1,3.1,0,0,1-2-.91h0a6.62,6.62,0,0,1-1.62-2l-1.21.52a8.6,8.6,0,0,0,1.93,2.36,4.38,4.38,0,0,0,3,1.28,2.44,2.44,0,0,0,1.25-.47,3.1,3.1,0,0,0,.74-.78c1.56-2.22,5.22-8.49,5.56-9.08.11-.15.55-.74,1-1.39.8-1.29,1-2,.6-2.52s-.84-.47-1.58-.18c-.55.22-1.49.69-2.66,1.29A74.23,74.23,0,0,1,91.46,48c-3.43,1.28-4.25.79-4.42.61-.48-.51-.35-.82.81-2A6.14,6.14,0,0,0,89.18,45,2.12,2.12,0,0,0,89,42.69a2,2,0,0,0-1.87-1c-1.21.12-2.43,1.53-3.63,4.19A1.74,1.74,0,0,1,82.16,47c-.62,0-1.13-.66-1.45-1.24-.49-.88,0-1.45,1.48-2.63,1.11-.92,2.37-2,2.43-3.51a3.36,3.36,0,0,0-2.84-3.42c-1.39-.23-3.15.41-3.9,2.92-.68,2.26-1.44,3.54-2.4,4A3.52,3.52,0,0,1,72.67,43a1.69,1.69,0,0,1-1.12-1.17c-.59-1.87.71-5.26,2.31-7.46s1.18-4.15.35-5.18a2.8,2.8,0,0,0-3.39-.77c-1.39.62-1.95,2.6-2.6,4.89s-1.45,5.17-3.28,6.88c-.8.76-2,1.57-3,1.13s-2-2.6-2-5.21c0-1.46.1-2.76.2-3.91.22-2.55.39-4.57-1.42-5.21a3.16,3.16,0,0,0-3.32.8c-.58.6-1.78,2.34-.47,5.68,1.08,2.78,1.29,5.39.55,7A2.56,2.56,0,0,1,53.94,42c-1,.36-2.43-.09-3.89-1.22a10.16,10.16,0,0,1-3.16-4.14l-.08-.2a23.24,23.24,0,0,0-1.87-4.24c-.9-1.4-2-2-3.2-1.74a2.48,2.48,0,0,0-1.92,1.67c-.68,1.93.5,4.9,3.22,8.16,1.58,1.89,2.18,3.67,1.79,5.27a4.54,4.54,0,0,1-2.49,2.94c-1,.41-3.49,1-5.81-2.2a6.63,6.63,0,0,0-2.47-2.12,3.14,3.14,0,0,0-2.5-.2,2.27,2.27,0,0,0-1.24,2.64c.24,1.59,1.86,2.51,3.58,3.48s3.44,2,3.63,3.51-.18,3-1,3.52-1.74.23-2.95-.56c-2.3-1.5-4.06-1.91-5.11-1.17-.52.36-1.05,1.16-.64,2.85.32,1.35,2.1,2,4,2.77,1.63.63,3.49,1.35,3.68,2.31.11.57-.36,1.37-1.36,2.31a.64.64,0,0,0,0,.91.65.65,0,0,0,.91,0c1.37-1.3,1.94-2.44,1.73-3.5-.33-1.66-2.44-2.47-4.48-3.26-1.36-.52-3-1.17-3.21-1.87s-.14-1.31.13-1.5c.44-.31,1.75-.06,3.67,1.2,2.22,1.45,3.66,1,4.32.57,1.26-.78,1.86-2.56,1.6-4.76s-2.4-3.41-4.28-4.48c-1.44-.81-2.79-1.58-2.94-2.55-.07-.46-.05-1.05.46-1.26.66-.27,2.16.14,3.43,1.89a7.08,7.08,0,0,0,3.78,2.86,5.38,5.38,0,0,0,3.57-.23,5.82,5.82,0,0,0,3.25-3.83c.34-1.38.26-3.62-2.06-6.4-2.81-3.36-3.39-5.77-3-6.9a1.23,1.23,0,0,1,1-.84c1.57-.32,2.56,2.35,3.61,5.17l.07.2a11.37,11.37,0,0,0,3.58,4.7c1.84,1.43,3.65,1.94,5.11,1.43a3.89,3.89,0,0,0,2.26-2.12c.9-1.95.7-4.87-.53-8-.72-1.86-.65-3.43.21-4.31a1.86,1.86,0,0,1,2-.49c.84.3.78,1.47.57,3.89-.1,1.18-.22,2.51-.21,4,0,3.21,1.1,5.66,2.8,6.38A3.5,3.5,0,0,0,65,41.85a7.69,7.69,0,0,0,.81-.68c2.09-2,3-5,3.64-7.47.54-1.9,1-3.69,1.88-4.06a1.49,1.49,0,0,1,1.87.4c.54.68.77,2-.39,3.61-1.8,2.49-3.24,6.24-2.5,8.61a3,3,0,0,0,1.93,2,4.72,4.72,0,0,0,3.81,0c1.32-.67,2.25-2.15,3-4.8.44-1.45,1.35-2.21,2.45-2a2.12,2.12,0,0,1,1.78,2.1c0,1-1,1.78-2,2.57-1.27,1-2.84,2.34-1.78,4.25.9,1.62,1.92,1.93,2.63,1.9a3,3,0,0,0,2.4-1.85A11.87,11.87,0,0,1,86,43.74c.92-1.23,1.68-1,2-.21C88.56,44.78,86.37,46.09,85.68,47.26Z"/><path class="cls-2" d="M85.51,71.05a3.08,3.08,0,0,1-.47.3A2.34,2.34,0,0,1,82.11,71c-3-2.84-7-13.63-7.4-14.68a.63.63,0,0,1,.38-.83.63.63,0,0,1,.82.38c1.87,5,5.14,12.32,7.09,14.21a1.08,1.08,0,0,0,1.43.11c1.6-.87,3-3.72,2.85-4.53-.22-1.13-4.16-7.18-6-9.82a.64.64,0,0,1,.15-.89h0a.63.63,0,0,1,.89.16c.5.72,5.86,8.55,6.2,10.31a5.64,5.64,0,0,1-.92,3.13A7.93,7.93,0,0,1,85.51,71.05Z"/><path class="cls-2" d="M71.5,80.46a7.29,7.29,0,0,1-2.21,1c-2.22.63-4.87.45-5.92-.41-.9-.73-1.1-2.31-1.58-6.1-.42-3.31-1-9.51-2.52-16.78A.64.64,0,0,1,60.53,58C62,65.27,62.65,71.5,63.07,74.83c.37,2.92.61,4.85,1.12,5.27s2.69.75,4.74.16a4.24,4.24,0,0,0,3-2.44c.26-.76.38-3.15-1.74-10.54C69,63,67,57,67,57a.65.65,0,0,1,1.22-.44s2,6.06,3.24,10.38c1.71,6,2.27,9.68,1.71,11.32A4.62,4.62,0,0,1,71.5,80.46Z"/><path class="cls-2" d="M52.53,80.77a3.07,3.07,0,0,1-2.37.48c-2.57-.42-5.53-3.29-6-4.8a5.82,5.82,0,0,1,.16-2.63A36.27,36.27,0,0,0,44,61.87a.64.64,0,1,1,1.27-.21,38.06,38.06,0,0,1,.34,12.41,5.06,5.06,0,0,0-.18,2c.28,1,2.85,3.54,4.92,3.88a1.67,1.67,0,0,0,1.85-.72c.45-.66,1.1-2.82.43-9.92-.39-4.13-1.28-9.57-1.28-9.61a.64.64,0,1,1,1.26-.22s.91,5.52,1.3,9.7c.55,5.81.34,9.33-.64,10.77A3.34,3.34,0,0,1,52.53,80.77Z"/><path class="cls-2" d="M75.24,56.52c-5.83.95-12.55,1-20.39,2.76A75.38,75.38,0,0,0,37,65.54a18.3,18.3,0,0,1,1.27,2.91c.82,2.45.66,4.19-.46,5.17-1.53,1.34-3.56.55-5.71-.29A15.28,15.28,0,0,0,26.86,72a.65.65,0,0,1-.43-1.12A41.27,41.27,0,0,1,33.49,66,74.71,74.71,0,0,1,54.58,58a148.47,148.47,0,0,1,20.55-2.79s9.59-.47,13.4-1.47c0,0,8-2.3,12.34-9.12,0,0,1.06-.48.84.27s-4,6.12-10.37,9S78.91,55.92,75.24,56.52ZM28.46,70.85a20.6,20.6,0,0,1,4.11,1.28c2.14.84,3.49,1.31,4.39.53,1.4-1.23-.28-5-1.11-6.53-.6.32-1.15.63-1.67.92A50.29,50.29,0,0,0,28.46,70.85Z"/><path class="cls-2" d="M51.41,55.63a52.66,52.66,0,0,0-8.19,6.9.65.65,0,0,1-.9.12.64.64,0,0,1-.12-.9,32.82,32.82,0,0,1,8.49-7.19,38.57,38.57,0,0,1,10.5-4.44S69.1,48.56,73.81,50C77.76,51.26,63,47.59,51.41,55.63Z"/><path class="cls-2" d="M88.16,65a.66.66,0,0,1-.78,0,.65.65,0,0,1-.11-.91,47,47,0,0,0,4.68-7,.64.64,0,0,1,.86-.3.65.65,0,0,1,.3.86,47.39,47.39,0,0,1-4.82,7.22A.74.74,0,0,1,88.16,65Z"/><path class="cls-2" d="M77.32,75.86a27.18,27.18,0,0,1-4.22,2.56.64.64,0,0,1-.55-1.16A36,36,0,0,0,82,70.06.64.64,0,0,1,83,71,45.52,45.52,0,0,1,77.32,75.86Z"/><path class="cls-2" d="M63.49,81.11a.66.66,0,0,1-.3.12,29.17,29.17,0,0,1-10.72-.64.65.65,0,0,1,.33-1.25A27.29,27.29,0,0,0,63,80a.64.64,0,0,1,.71.56A.65.65,0,0,1,63.49,81.11Z"/><path class="cls-2" d="M44.76,76.58a.68.68,0,0,1-.66.06c-3.51-1.69-6.9-2.88-6.93-2.89a.65.65,0,0,1,.42-1.22s3.49,1.23,7.07,3a.65.65,0,0,1,.3.86A.68.68,0,0,1,44.76,76.58Z"/></g></svg>