<svg id="Ebene_1" data-name="Ebene 1" xmlns="http://www.w3.org/2000/svg" viewBox="0 0 113.86 110.51"><defs><style>.cls-1{opacity:0.85;}.cls-2{fill:#fff;}</style></defs><g class="cls-1"><path class="cls-2" d="M80.85,52.82c-.23-1.88.05-3.79-.37-5.66q-.42-1.86-.78-3.72c-.17-.87-.24-1.76-.46-2.62A24.3,24.3,0,0,0,75.49,33a8.3,8.3,0,0,0-2.69-2.9c-.32-.17-.51-.56-.79-.82a16.46,16.46,0,0,0-4.36-3.33c-1.44-.65-2.88-1.28-4.35-1.87a33,33,0,0,0-6.42-1.61,18,18,0,0,0-5.48-.24c-.63.08-1.27,0-1.9.06s-1.39.09-2.08.2a22.37,22.37,0,0,0-6.83,2.24,31.62,31.62,0,0,1-3.41,1.67,4.44,4.44,0,0,0-1.84,1.34,28,28,0,0,0-3.75,4.1c-.19.27-.38.54-.56.82-.41.56-.82,1.13-1.22,1.71l-.08.1a9.87,9.87,0,0,0-.86,1.28l-.19.27a.16.16,0,0,0,0,.13,4,4,0,0,0-.21.47.09.09,0,0,1,0,0,4.58,4.58,0,0,0-.28.91,8.07,8.07,0,0,1-.44,1.25,45.56,45.56,0,0,0-2.46,8.77,12.69,12.69,0,0,0-.11,4.35,30.37,30.37,0,0,1,.3,4.15A6.13,6.13,0,0,0,26,59a7.15,7.15,0,0,1,.33,1.08c.28.84.55,1.68.87,2.5s.81,1.86,1.17,2.81A18.32,18.32,0,0,0,32.79,72a26.1,26.1,0,0,0,5.38,4.19c2.46,1.42,4.78,3,7.62,3.77A21,21,0,0,0,51.72,81c.63,0,1.27,0,1.9,0v0c1.33,0,2.67,0,4,0a17.91,17.91,0,0,0,8.47-2.57,5.63,5.63,0,0,1,.83-.46c3.85-1.62,6.5-4.58,8.69-8a57.74,57.74,0,0,0,3-5.72,22.19,22.19,0,0,0,1.83-5.79A19,19,0,0,0,80.85,52.82ZM47.53,24.7a5.13,5.13,0,0,1,1.86-1.16.81.81,0,0,1,.32-.21,2.57,2.57,0,0,1,1.08-.15l0,0a29.6,29.6,0,0,1,8.29.75c.56.1,1.1.27,1.66.39a19.92,19.92,0,0,1,5.8,2.3c.76.45,1.51.92,2.27,1.38a.86.86,0,0,1,.16.1,26.3,26.3,0,0,1,6.77,7.46,1.33,1.33,0,0,1,.4.8c.13.28.26.56.38.85,0,.12.08.24.12.36a.52.52,0,0,1-.6.7,5.51,5.51,0,0,1-1-.3l-4.78-.37c-2.08,0-4.16,0-6.24,0a9.75,9.75,0,0,0-2.63.3c-1.53.4-3.11.64-4.64,1.06a34.39,34.39,0,0,0-6.45,2.22,29.51,29.51,0,0,0-5.44,3.1c-.09.08-.24.08-.46.15-.29-.24-.63-.51-.94-.81a7.77,7.77,0,0,0-1-1.11,2.46,2.46,0,0,1-1.05-1.94,9.67,9.67,0,0,1,0-2.28,20.89,20.89,0,0,1,2.07-6.93.24.24,0,0,1,0-.08A17,17,0,0,1,47.53,24.7ZM43.46,46c0,.48-.11,1-.14,1.46h0a1.56,1.56,0,0,0-.23.34.28.28,0,0,0,0,.09,1.86,1.86,0,0,1-.28.21,6.75,6.75,0,0,1-3.12.76,1.27,1.27,0,0,1-.58-.13,2.08,2.08,0,0,1-1.49-1.59,1.61,1.61,0,0,1-.08-.38,2.65,2.65,0,0,1-.21-1,3,3,0,0,1,2.17-3.16,1.54,1.54,0,0,1,.74,0,4.48,4.48,0,0,1,2.5,1.64c.23.33.45.67.67,1,0,.11.05.22.07.32S43.47,45.86,43.46,46ZM26.33,47a51,51,0,0,1,1.33-5.52,20.69,20.69,0,0,1,2.89-6.18A28.42,28.42,0,0,1,35,29.56a6.67,6.67,0,0,1,3-2.25,3.47,3.47,0,0,1,.59-.34,2.56,2.56,0,0,1,.65-.54,29,29,0,0,1,4.36-1.79c.79-.12,1.54-.44,2.33-.58a.19.19,0,0,0,.09,0,1.75,1.75,0,0,1,.4.09l-2.2,3h0c-1.54,2.26-2.09,4.61-3,6.81s-.77,4.72-1.25,7c-.75.44-1.46.84-2.14,1.29a2.46,2.46,0,0,0-1.22,1.83c-.1.74-.35,1.47-.48,2.22a1.85,1.85,0,0,1-1.1,1.44c-.68.33-1.34.73-2,1a14.12,14.12,0,0,0-3.68,2.32,8.89,8.89,0,0,0-1.34,1.58,2.9,2.9,0,0,1-1.76,1.43A27.76,27.76,0,0,1,26.33,47ZM45,78.21a20.83,20.83,0,0,1-2.61-1.14,35.79,35.79,0,0,1-6.26-4,18.5,18.5,0,0,1-4.29-4.27c-.28-.42-.64-.78-.93-1.2a10,10,0,0,1-1-1.6c-.76-1.74-1.43-3.52-2.19-5.25a5.73,5.73,0,0,1-.32-.9,2,2,0,0,1-.08-.26A6.11,6.11,0,0,1,28,54.87a8.2,8.2,0,0,1,1-1.16,6.5,6.5,0,0,1,1.4-1.37l.11-.16c1.46-2,3.58-2.93,5.76-3.8a2.46,2.46,0,0,1,.67-.06,4.37,4.37,0,0,0,3.24,2,6.47,6.47,0,0,1,.33,1.1c.13,1.26.28,2.52.3,3.79a36.06,36.06,0,0,0,1.26,9c.22.8.34,1.62.5,2.42a33.21,33.21,0,0,0,4,10.23l.18.31s0,0,0,0c.28.52.59,1,.9,1.54l.09.17C46.8,78.75,45.89,78.5,45,78.21Zm25.69-4.38A27.53,27.53,0,0,1,62,78.48a28.39,28.39,0,0,1-5.78,1,30.25,30.25,0,0,1-6.46-.21,28.7,28.7,0,0,0-1.89-2.24c-.2-.33-.42-.65-.61-1a19.47,19.47,0,0,1-1.73-3.59c-.26-.84-.75-1.6-1-2.44a45.2,45.2,0,0,1-1.28-4.36c-.46-2-.73-4.12-1.19-6.16a23.19,23.19,0,0,1-.43-4.15c-.05-1.33-.06-2.66-.15-4a1.55,1.55,0,0,1,.91-1.7c.4-.19.79-.41,1.25-.65a10.08,10.08,0,0,1,3.61,1.51,4.72,4.72,0,0,0,1.19.59,25.23,25.23,0,0,1,5.67,3.06,72.64,72.64,0,0,1,8.32,6.63c.41.39.81.81,1.2,1.22,1,1,1.88,2.06,2.89,3A50.09,50.09,0,0,1,71,70.22c.43.53.84,1.08,1.32,1.7A3.73,3.73,0,0,1,70.68,73.83Zm9.16-19.95c0,1.14-.24,2.27-.32,3.4a20.41,20.41,0,0,1-2.13,6.85,25.67,25.67,0,0,1-3.67,6.19,5.93,5.93,0,0,1-.57.53c-.83-1-1.63-2-2.39-3a54.74,54.74,0,0,0-4.9-5.31c-.36-.36-.73-.7-1.06-1.08a30.77,30.77,0,0,0-6.21-5.57c-2-1.35-3.91-2.81-5.9-4.16a20.66,20.66,0,0,0-2.52-1.3A34.16,34.16,0,0,1,45.41,48l-.6-.45a2.91,2.91,0,0,1,.95-2.4,8.35,8.35,0,0,1,2.62-1.86c.64-.26,1.24-.62,1.85-.94a27,27,0,0,1,6.3-2.07c.61-.16,1.25-.25,1.85-.43,3.47-1,7-.9,10.58-.74l7.52.6v0c1,.18,1.16.2,1.27,1.36l.59,2.33a13.14,13.14,0,0,1,.29,1.52A27.86,27.86,0,0,1,79,47.76c0,.14,0,.27,0,.4v.05A20.11,20.11,0,0,1,79.84,53.88Z"/></g></svg>