<svg id="Ebene_1" data-name="Ebene 1" xmlns="http://www.w3.org/2000/svg" viewBox="0 0 113.86 110.51"><defs><style>.cls-1{fill:none;stroke:#fff;stroke-miterlimit:10;stroke-width:3.17px;}</style></defs><path class="cls-1" d="M54.07,78.9a51.43,51.43,0,0,1-13.9-1.83c-3.05-.82-4.42-2.69-4.54-5.89-.19-4.71.69-9.1,3.76-12.81A40.36,40.36,0,0,1,42.91,55c.74-.7,1.3-.57,2.05.17a12.76,12.76,0,0,0,16.32,1.62A11.06,11.06,0,0,0,63.35,55a1.12,1.12,0,0,1,1.76-.19,17.1,17.1,0,0,1,7.36,12.89c.1,1.2.07,2.41.06,3.62a5.47,5.47,0,0,1-4.44,5.7A51.47,51.47,0,0,1,54.07,78.9Z"/><path class="cls-1" d="M64.12,40.11a10.63,10.63,0,1,1-10.6-10.66A10.62,10.62,0,0,1,64.12,40.11Z"/></svg>