<svg id="Ebene_1" data-name="Ebene 1" xmlns="http://www.w3.org/2000/svg" viewBox="0 0 113.86 110.51"><defs><style>.cls-1{opacity:0.85;}.cls-2{fill:#fff;stroke:#fff;stroke-miterlimit:10;stroke-width:0.14px;}</style></defs><g class="cls-1"><path class="cls-2" d="M41.09,83.93c-1.81,0-3.63,0-5.45,0-.84,0-1.68-.19-2.53-.29-1.24-.13-2.49-.21-3.72-.4-2.81-.44-5.6-.93-8.39-1.41a3.16,3.16,0,0,1-.81-.24.52.52,0,0,1-.25-.4.32.32,0,0,1,.3-.34c.28,0,.56,0,.84,0a28.41,28.41,0,0,0,10.73-2.43,29.56,29.56,0,0,0,4.33-2.69,42.14,42.14,0,0,0,4.73-3.91c.08-.08.17-.15.24-.23a42.38,42.38,0,0,0,6.3-8.65,16.88,16.88,0,0,0,2.07-9,4.21,4.21,0,0,0-.3-1.49.74.74,0,0,0-1.11-.4,8.17,8.17,0,0,0-.69.51,1.78,1.78,0,0,1-1.61.31,4.11,4.11,0,0,1-2.5-1.93,1.73,1.73,0,0,1,.26-2.19,4.3,4.3,0,0,1,.62-.59,6.38,6.38,0,0,0,1.7-2.32,2.22,2.22,0,0,0-.32-2.67,2.37,2.37,0,0,0-2.62-.74A3.08,3.08,0,0,0,41.7,43a6.89,6.89,0,0,1-3.32,1.64,3.78,3.78,0,0,0-3,2.27,2.5,2.5,0,0,1-1.85,1.36A1.85,1.85,0,0,1,31.79,48a1.53,1.53,0,0,0-1.58-.18A1.46,1.46,0,0,1,28.27,47a3,3,0,0,1,0-2.64c.18-.41.37-.82.52-1.24a.45.45,0,0,0-.25-.57.56.56,0,0,0-.47.08c-.26.22-.44.51-.7.73a1.29,1.29,0,0,1-2.05-.63,10.61,10.61,0,0,0-.3-1.32A2.2,2.2,0,0,1,26,38.45a11.89,11.89,0,0,1,4.44-2.07,11.54,11.54,0,0,1,2-.33,3,3,0,0,0,2.27-1.34c.42-.56.39-.86-.09-1.49-.07-.09-.17-.16-.23-.25a.5.5,0,0,1,.08-.75c.72-.55,1.44-1.1,2.18-1.63a3.32,3.32,0,0,1,2.8-.27c.71.17,1.41.43,2.11.67a4.3,4.3,0,0,0,3,0,4,4,0,0,1,2.35-.09,2.18,2.18,0,0,0,.84.07c.32-.05.68-.16.7-.61a2.51,2.51,0,0,1,1.28-2.09A5.14,5.14,0,0,1,53,27.6a6.67,6.67,0,0,1,1.16.25,12.82,12.82,0,0,0,3.38.35,15,15,0,0,1,4.23.35,6.27,6.27,0,0,1,3.1,1.69,2.73,2.73,0,0,0,1.77.91,5.08,5.08,0,0,1,2.88,1.34,5.08,5.08,0,0,0,1,.7,1.51,1.51,0,0,0,1.61-.07,8.85,8.85,0,0,1,7.06-.76,22.76,22.76,0,0,1,2.39.87A7,7,0,0,1,84,35a10.76,10.76,0,0,0,4.7,3,8.22,8.22,0,0,1,3,1.82A21.94,21.94,0,0,1,96.5,46a15.1,15.1,0,0,1,1.63,4.64c.17.95.4,1.89.5,2.85A13.51,13.51,0,0,1,98.46,58,30.36,30.36,0,0,1,96,64.89a17.36,17.36,0,0,1-2,3.52,3.91,3.91,0,0,1-.53.67c-1.33,1-2.52,2.26-3.75,3.43a1.09,1.09,0,0,1-.25.23,22.7,22.7,0,0,0-2.87,2.1,18.86,18.86,0,0,1-5,2.52c-1.61.57-3.24,1.07-4.82,1.71a59.47,59.47,0,0,1-7.17,2.1,19.94,19.94,0,0,0-2.26.75,8.8,8.8,0,0,1-3.67.59,24.68,24.68,0,0,0-5.94.29c-1.1.23-2.27.13-3.38.3A101.27,101.27,0,0,1,41.09,83.93Zm-6.82-4.5c.28-.07.56-.11.83-.2,1.65-.61,3.32-1.17,5-1.62a11.58,11.58,0,0,0,1.28-.48,82.35,82.35,0,0,0,8-3.84,32.7,32.7,0,0,0,5.41-3.54,30,30,0,0,0,3.73-3.48c.13-.16.37-.36.56-.08a.54.54,0,0,1,0,.48A10.42,10.42,0,0,1,58,68a30.91,30.91,0,0,1-6,4.7c-2.32,1.31-4.68,2.55-7.06,3.76A28.71,28.71,0,0,1,39,78.72a6.86,6.86,0,0,0-2.08.83,1.71,1.71,0,0,0,1.41,0,74.5,74.5,0,0,0,9-2.59,51.71,51.71,0,0,0,5.35-2.59c.24-.13.43-.39.75-.22s.09.57-.26.85a5.2,5.2,0,0,1-.85.56A42.92,42.92,0,0,1,47.25,78c-.12,0-.33.08-.18.36.2,0,.42,0,.63-.09A39.39,39.39,0,0,0,53.94,76a34.68,34.68,0,0,0,4.85-2.49c2.79-1.69,5-4,7.44-6.2a5.52,5.52,0,0,0,.43-.53c.53-.73,1.09-1.46,1.59-2.21A27,27,0,0,0,71,59.65a38,38,0,0,0,1.76-5.51,11,11,0,0,0,.2-4,8,8,0,0,1-.11-.84c0-.06.12-.15.2-.2a.16.16,0,0,1,.16,0,1.88,1.88,0,0,1,.27.42c.59,1.38.26,2.81.08,4.2a23.68,23.68,0,0,1-2.75,8.19,23.43,23.43,0,0,1-5.6,7.44,4.26,4.26,0,0,0-.61.59,23.82,23.82,0,0,1-5.78,4.47A50.25,50.25,0,0,1,43,80.14c-2.39.49-4.78,1-7.18,1.43a.38.38,0,0,0-.32.41,7.18,7.18,0,0,0,1.85-.08c2.25-.34,4.5-.64,6.74-1a42.28,42.28,0,0,0,4.2-.7c2.21-.55,4.4-1.13,6.56-1.86a6.94,6.94,0,0,1,.81-.25.35.35,0,0,1,.43.17.44.44,0,0,1-.19.58,2.84,2.84,0,0,1-.61.29c-2,.56-3.93,1.12-5.89,1.66a13,13,0,0,1-2.49.59c-2.27.16-4.51.54-6.76.84-1.76.23-3.51.63-5.29.76a29.26,29.26,0,0,0,3.73.21,129.49,129.49,0,0,0,15.63-.84,5.82,5.82,0,0,1,1-.06,14.79,14.79,0,0,0,3-.26,22.71,22.71,0,0,1,5.76-.31,5.78,5.78,0,0,0,2.84-.43,13.16,13.16,0,0,1,2.38-.89,55.71,55.71,0,0,0,7.84-2.24c.85-.32,1.66-.72,2.55-1A25.93,25.93,0,0,0,89.12,72c1.56-1.3,2.92-2.84,4.35-4.29a4.47,4.47,0,0,0,.91-1.22c.84-1.8,1.74-3.59,2.4-5.46a15.83,15.83,0,0,0,.86-8.54A18.14,18.14,0,0,0,96.58,48a24.27,24.27,0,0,0-4.76-7,9.13,9.13,0,0,0-3.66-2.39,10.92,10.92,0,0,1-2.73-1.37,11.69,11.69,0,0,1-2.33-2,6.7,6.7,0,0,0-3-1.87A9.75,9.75,0,0,0,78,32.83c-2-.12-4-.26-5.63,1.21a1.65,1.65,0,0,1-2.19.07,14.93,14.93,0,0,1-1.32-1.06,4.13,4.13,0,0,0-2.43-1.13,3,3,0,0,1-2.09-1,5.48,5.48,0,0,0-3.13-1.61A16.31,16.31,0,0,0,57.62,29a14.6,14.6,0,0,1-3.55-.34,7.85,7.85,0,0,0-1.51-.27,4.31,4.31,0,0,0-2.45.54c-.73.46-.78,1.16-.85,1.92A1.32,1.32,0,0,1,47.65,32a1.23,1.23,0,0,1-.33-.08,4.61,4.61,0,0,0-3.17,0,3.81,3.81,0,0,1-2.36,0c-.65-.19-1.29-.42-1.93-.65a3.08,3.08,0,0,0-3.82.95c-.26.33-.51.59-.31,1a1.83,1.83,0,0,1-.45,2,3.78,3.78,0,0,1-2.73,1.55,12.56,12.56,0,0,0-3.47.78,7.31,7.31,0,0,0-2.91,1.72,1.25,1.25,0,0,0-.49,1,15.35,15.35,0,0,0,.55,2.12c.07.23.36.26.57.1s.21-.26.34-.38A1.35,1.35,0,0,1,29,41.94a1.4,1.4,0,0,1,.45,1.68c-.12.38-.3.73-.45,1.1a2.84,2.84,0,0,0-.13,1.68.87.87,0,0,0,1.24.74,2.23,2.23,0,0,1,2.09.27,1.76,1.76,0,0,0,2.27-.53,10.57,10.57,0,0,0,.61-1,3.16,3.16,0,0,1,2.4-1.7A7.36,7.36,0,0,0,41.1,42.5a3.61,3.61,0,0,1,4-.63A3,3,0,0,1,46.6,46.1,10.45,10.45,0,0,1,44.3,49,1.13,1.13,0,0,0,44,50.56,3.21,3.21,0,0,0,45.77,52c.59.24,1.08-.09,1.56-.45a2,2,0,0,1,1.74-.45,2.69,2.69,0,0,0,3.29-1.38,6.83,6.83,0,0,1,1.52-1.82,2.89,2.89,0,0,1,1.7-.69,1,1,0,0,1,1.07.68,8.33,8.33,0,0,1,.16,1c.06.34.31.45.61.49a1.79,1.79,0,0,0,1.52-.61,6,6,0,0,0,.72-.94,4.75,4.75,0,0,1,2.28-1.72,2.42,2.42,0,0,1,1.5-.15,1.19,1.19,0,0,1,1,1.21c0,.28-.12.56-.14.84a.77.77,0,0,0,.65.86,3.74,3.74,0,0,0,3.23-.58,8.29,8.29,0,0,1,1.25-.88,2,2,0,0,0,1-1.43A2.27,2.27,0,0,1,73.12,44c.57,0,1.13,0,1.7,0a2.26,2.26,0,0,1,2.33,1.37A12,12,0,0,0,78,46.84a2.68,2.68,0,0,0,2.82,1.46,3.88,3.88,0,0,1,.68,0,1.25,1.25,0,0,0,1.2-.77c.83-1.65,1.13-1.74,2.72-.86a2.91,2.91,0,0,0,2.11.44,4.14,4.14,0,0,1,3.49.82,10.39,10.39,0,0,1,4.49,6.58,13.19,13.19,0,0,1-1.38,8.75,1.34,1.34,0,0,1-.36.35.19.19,0,0,1-.16,0c-.09-.06-.23-.15-.22-.21a3.24,3.24,0,0,1,.22-.81,17.57,17.57,0,0,0,1.29-5.44c0-.23.14-.53-.21-.77-.12.21-.22.4-.32.6-.55,1.17-1,2.39-1.67,3.53a30.58,30.58,0,0,1-4.43,6.63c-1.29,1.36-2.53,2.76-3.95,4-1.63,1.42-3.47,2.55-5.23,3.81-.19.13-.52.2-.39.63.23-.08.45-.12.65-.21a41.84,41.84,0,0,0,7.59-4.53,10.09,10.09,0,0,0,1.13-1c.76-.76,1.49-1.56,2.26-2.32.52-.52,1.06-1,1.61-1.51a.34.34,0,0,1,.46.05.33.33,0,0,1,.1.45,3,3,0,0,1-.4.54c-.76.77-1.53,1.53-2.3,2.29a18.32,18.32,0,0,1-2.19,2.13,54.77,54.77,0,0,1-5.9,3.73A69.87,69.87,0,0,1,75,78.06a65.71,65.71,0,0,1-8.42,2.75c-.71.18-1.45.22-2.18.33a.24.24,0,0,1-.17,0c-.09-.05-.21-.12-.23-.2s0-.26.09-.29a7.35,7.35,0,0,1,1.08-.47,80.1,80.1,0,0,0,8.4-3.26A44.62,44.62,0,0,0,85,69.31a30.54,30.54,0,0,0,4.59-5.25,34.83,34.83,0,0,0,3.69-6.89,15.56,15.56,0,0,0,1-3.2c.12-.83-.72-1.5-1-2.32a4.25,4.25,0,0,0-.33-.79,2,2,0,0,0-.31-.4.32.32,0,0,0-.54.12,8.15,8.15,0,0,0-.2.82A34.87,34.87,0,0,1,88.5,61.85,33.82,33.82,0,0,1,81,71a52,52,0,0,1-6.81,4.81,3.14,3.14,0,0,1-.79.3.35.35,0,0,1-.29-.12.3.3,0,0,1,0-.29,18.81,18.81,0,0,1,1.77-1.31,33,33,0,0,0,8-6.54,3.71,3.71,0,0,1,.5-.47,7.38,7.38,0,0,0,1.49-1.62,29.83,29.83,0,0,0,5.29-10.41,31.2,31.2,0,0,0,.91-4.68,2.12,2.12,0,0,0-.21-1.61c-.75.33-.23,1-.36,1.46a3.41,3.41,0,0,0,0,.85c0,2-.91,3.84-1.62,5.69a.25.25,0,0,1-.4.12.35.35,0,0,1-.11-.3c.23-.87.48-1.74.74-2.61a13.73,13.73,0,0,0,.31-5.74c0-.37-.32-.62-.53-.52s-.24.33-.21.56A20.12,20.12,0,0,1,88.33,54,35.53,35.53,0,0,1,86,61.28a5.41,5.41,0,0,1-1.5,2.25.34.34,0,0,1-.45.07c-.18-.13-.1-.32,0-.45a20.27,20.27,0,0,0,1.94-4,25.29,25.29,0,0,0,1.73-9.49c0-1.6,0-1.6-1.55-1.8-.17,0-.35,0-.45.22a19.61,19.61,0,0,1,0,3.51,57.75,57.75,0,0,1-2,8.61,3.89,3.89,0,0,1-.46.91.47.47,0,0,1-.45.07c-.12-.06-.18-.27-.22-.42a.56.56,0,0,1,.09-.32c1.35-2.93,1.64-6.13,2.23-9.24a5.58,5.58,0,0,0-.44-3.82c-.21-.38-.61-.43-.78-.06A3.62,3.62,0,0,1,82.29,49c-.29.16-.31.46-.35.73-.09.68-.12,1.37-.27,2a44,44,0,0,1-3.86,10.87,45,45,0,0,1-7.28,9.83,2.39,2.39,0,0,1-.7.47.33.33,0,0,1-.43-.15.36.36,0,0,1,0-.32c.74-.85,1.5-1.7,2.25-2.55a35.87,35.87,0,0,0,5.92-8.7c.51-1.09.84-2.23,1.31-3.32a35,35,0,0,0,1.91-6.17,4.43,4.43,0,0,0,0-2.34,1.54,1.54,0,0,0-.34-.15A4.44,4.44,0,0,1,77,46.86c-.27-.43-.52-.88-.75-1.33a1.37,1.37,0,0,0-1.08-.75,15.77,15.77,0,0,0-2.38-.05,1.33,1.33,0,0,0-1.28,2A4.08,4.08,0,0,1,71.78,48a22,22,0,0,1-.34,5.43c-.28,1.21-.68,2.4-1,3.6a39.55,39.55,0,0,1-1.73,4.26.46.46,0,0,1-.21.26,1,1,0,0,1-.48,0c-.07,0-.15-.19-.14-.28a2,2,0,0,1,.18-.64,34.5,34.5,0,0,0,2.2-5.89A19.74,19.74,0,0,0,71,48.72c0-.28,0-.61-.24-.78s-.63.08-.92.22a1.23,1.23,0,0,0-.57,1.33,8.49,8.49,0,0,1-.44,3,57.35,57.35,0,0,1-3.25,9.13,29.66,29.66,0,0,1-7,8.93,1.8,1.8,0,0,1-.58.31.33.33,0,0,1-.29-.13.36.36,0,0,1-.09-.3,1.46,1.46,0,0,1,.38-.55,25.51,25.51,0,0,0,3.24-3.25,15,15,0,0,0,2.27-3A44.81,44.81,0,0,0,68.17,52a3.7,3.7,0,0,0,.1-2.3c-.41-.22-.69.12-1,.1-.73,0-1,.41-1.1,1-.22,1.17-.42,2.34-.66,3.51a38.71,38.71,0,0,1-2.4,7.27,1.83,1.83,0,0,1-.38.54.36.36,0,0,1-.32,0,.45.45,0,0,1-.19-.25,1.28,1.28,0,0,1,.25-1,33.09,33.09,0,0,0,2.16-6.08,24.09,24.09,0,0,0,.74-4.36c0-.38,0-.68-.48-.77a2,2,0,0,1-.49-.14c-.86-.44-1.06-.86-.91-1.92a1.78,1.78,0,0,0,.06-.51.5.5,0,0,0-.43-.45,1.89,1.89,0,0,0-1,.11,3.94,3.94,0,0,0-2,1.6,4.49,4.49,0,0,1-1.82,1.74,1,1,0,0,0-.55,1,24.4,24.4,0,0,1-1,4.49,30.53,30.53,0,0,1-6.59,12.19c-.48.55-1,1.11-1.47,1.65a2.35,2.35,0,0,1-.53.41.34.34,0,0,1-.45-.12.59.59,0,0,1-.08-.46c0-.14.23-.24.34-.36a32.36,32.36,0,0,0,7.14-10.91A36.66,36.66,0,0,0,57,51.5,1.23,1.23,0,0,0,56.44,50a1.32,1.32,0,0,1-.56-1.17c-.05-.77-.34-1-.9-.66a3.68,3.68,0,0,0-2.21,3.35c0,.51,0,1,0,1.54a21.72,21.72,0,0,1-2,9.25A41.91,41.91,0,0,1,48.67,66,23,23,0,0,1,40,74.24a37.11,37.11,0,0,0-4.72,3c-.17.13-.53.24-.29.67a31.67,31.67,0,0,0,9.86-5.62c.25-.21.45-.52.82-.55a.41.41,0,0,1,.39.44c0,.31-.31.47-.52.64a32.83,32.83,0,0,1-8.72,5.25,7,7,0,0,0-2.53,1.35c-.55,0-1.1,0-1.65,0-.24,0-.53,0-.61.51A12.26,12.26,0,0,0,34.27,79.43Zm17.6-27.64c-1.52.18-1.67.33-1.62,1.58,0,.34.06.68.07,1a12,12,0,0,1-.4,4,29.16,29.16,0,0,1-2.51,6.13,26.69,26.69,0,0,1-3.89,5.36,8.12,8.12,0,0,0-.62.8.17.17,0,0,0,0,.15s.1.09.12.08a2,2,0,0,0,.43-.25A25.56,25.56,0,0,0,48,65.43,21.62,21.62,0,0,0,52,54.33,13.49,13.49,0,0,0,51.87,51.79Z"/><path class="cls-2" d="M51.39,81.88l-.61-.12s-.12-.08-.12-.1.05-.25.12-.29a2.36,2.36,0,0,1,.63-.22c1.57-.25,3.14-.52,4.71-.7a16.87,16.87,0,0,0,3.14-.74c1.3-.4,2.6-.8,3.88-1.25a35.45,35.45,0,0,0,5.5-2.69,28,28,0,0,0,3-2,10.27,10.27,0,0,0,1.9-1.7c1-1.2,2.2-2.14,3.06-3.42a1,1,0,0,1,.4-.31.3.3,0,0,1,.44.1c.06.09.11.25.07.3-.37.51-.73,1-1.14,1.48-.67.77-1.41,1.49-2,2.28a11.25,11.25,0,0,1-2.15,1.93A25,25,0,0,1,68,77.08c-.67.32-1.29.72-1.94,1.07a8.55,8.55,0,0,1-1.22.59c-2.21.73-4.42,1.46-6.65,2.13a18.15,18.15,0,0,1-2.34.4Z"/><path class="cls-2" d="M54.1,37.43c-1.06.21-1.74,0-2.35-1.42a6.39,6.39,0,0,1-.3-1.31c0-.07.11-.2.2-.23a.37.37,0,0,1,.31,0,1,1,0,0,1,.31.39,10.39,10.39,0,0,0,.42,1.1A1.13,1.13,0,0,0,54,36.6c1.88-.24,2.17,0,2,1.76a1.67,1.67,0,0,0,1.57,1.83,2.28,2.28,0,0,0,2.37-1A12.36,12.36,0,0,1,61.07,38a2.92,2.92,0,0,1,1.68-.76,1.59,1.59,0,0,1,1.76,1c.32.57.67.73,1.22.48a8.46,8.46,0,0,0,1.15-.71,1.13,1.13,0,0,1,1-.17.34.34,0,0,1,.24.19.36.36,0,0,1-.07.31,21.16,21.16,0,0,1-1.9,1.09,2.34,2.34,0,0,1-1.67.08c-.48-.14-.68-.52-.88-1-.28-.6-.63-.65-1.24-.35a4,4,0,0,0-1.28,1.1,11.18,11.18,0,0,1-.74.93,3.25,3.25,0,0,1-4.2.35,2.3,2.3,0,0,1-1-2.35c.13-.7,0-.83-.66-.78Z"/><path class="cls-2" d="M58.27,77.6c-.18-.11-.3-.15-.35-.24a.34.34,0,0,1,0-.3,4,4,0,0,1,.71-.43,39.21,39.21,0,0,0,7.79-4.79,16.23,16.23,0,0,0,2.62-2.41c1.23-1.48,2.47-3,3.65-4.48A14.26,14.26,0,0,0,73.77,63a7.78,7.78,0,0,1,.47-.7s.11,0,.15,0,.21.15.21.22a2,2,0,0,1-.11.65,9.59,9.59,0,0,1-1.15,2.08c-1,1.34-2.06,2.7-3.12,4A25.34,25.34,0,0,1,64,74.56a27.53,27.53,0,0,1-4.89,2.73C58.84,77.41,58.52,77.51,58.27,77.6Z"/><path class="cls-2" d="M49.14,38.55a2.68,2.68,0,0,1-1.76-.7,1,1,0,0,0-1.25-.13,4.5,4.5,0,0,1-1.11.41c-.76.16-1.1-.14-1.22-1-.09-.66-.14-.72-.66-.71s-.79,0-1.19.06a2.07,2.07,0,0,0-1.61,1.12A3.22,3.22,0,0,1,38,39.12a1.27,1.27,0,0,1-1.34-.53,1.13,1.13,0,0,1-.08-1.28,8.07,8.07,0,0,1,.64-1,.57.57,0,0,0-.07-.77c-.16-.19-.25-.4,0-.54a.62.62,0,0,1,.48,0c.67.35.82.8.47,1.37-.24.39-.52.75-.72,1.15a.54.54,0,0,0,.57.78,2.31,2.31,0,0,0,1.38-.6,1.79,1.79,0,0,0,.33-.39c.88-1.49,2.28-1.73,3.84-1.62.86.06,1,.17,1.25,1.08.17.59.23.62.79.38A3.25,3.25,0,0,0,46,37a1.35,1.35,0,0,1,1.74.12,2.31,2.31,0,0,0,2.52.49.28.28,0,0,1,.4.17.69.69,0,0,1-.14.47C50.25,38.58,49.82,38.53,49.14,38.55Z"/><path class="cls-2" d="M66,75.67s-.12,0-.14-.09-.09-.24,0-.29a3.67,3.67,0,0,1,1.38-1c.07,0,.2.06.29.11a.14.14,0,0,1,.06.13A1.68,1.68,0,0,1,66,75.67Z"/></g></svg>