<svg id="Ebene_1" data-name="Ebene 1" xmlns="http://www.w3.org/2000/svg" viewBox="0 0 113.86 110.51"><defs><style>.cls-1{opacity:0.85;}.cls-2{fill:#fff;stroke:#fff;stroke-miterlimit:10;stroke-width:0.48px;}</style></defs><g class="cls-1"><path class="cls-2" d="M31.7,43.3c.15,1.6.32,3.19.47,4.79a21.57,21.57,0,0,1,.21,3.11c-.16,2.76-.12,5.51-.23,8.27a63.5,63.5,0,0,1-1.39,8.33c-.41,2.36-1.1,5.51,0,7.79.63,1.26,1.79,1.56,3.08,1.77,2.53.41,5.08.74,7.64.92,0,.08.24.08.36,0,1.16.07,2.32.12,3.48.13,2.77,0,5.52-.1,8.3,0,1.73.08,3.45.13,5.18.16-.39.31-.65.75-.34,1.23a1.69,1.69,0,0,0,1.57.65.4.4,0,0,0,.29-.14c.05-.07,0-.15-.07-.14a1.67,1.67,0,0,1-1.2-.37.69.69,0,0,1,.07-1.18.12.12,0,0,0,0,0l3.18,0c2.27,0,4.77.45,7-.19,1.79-.52,2.49-2,2.6-3.72s1.31-2.92,2.42-4.24c.89-1.05.56-2.31.17-3.51-.59-1.79-1.6-3.49-2-5.34a32.71,32.71,0,0,1-.5-6.33V52.94a3.71,3.71,0,0,0,2.09.85c1.23.13,2.51-.29,3.45.73a5.78,5.78,0,0,0,2.06,1.55c.91.38,2.57.5,3.06,1.47a1.34,1.34,0,0,0,.34.33c0,.17-.11.34-.17.51l0,.13c0-.1,0-.07-.27-.1a21.43,21.43,0,0,0-2.89-.12A4,4,0,0,0,77,59,3.3,3.3,0,0,0,76.22,60a2.16,2.16,0,0,1-1.44-.39c-.51-.43,0-1.06.39-1.38.17-.16-.26-.07-.35,0-.39.37-.94,1-.49,1.52a2.21,2.21,0,0,0,1.67.48l.13,0a10.81,10.81,0,0,0-.63,2.47,17.75,17.75,0,0,0-.23,2.91h0s0,.08,0,.12c-.38-.46-.72-1.08-1-1.39-.11-.11-.28.3-.19.4.57.54,1,1.24,1.52,1.77s1.37,0,2-.19c1-.24,2.2,1.14,2.84,1.7A6.35,6.35,0,0,0,83,69.55a5.91,5.91,0,0,0,2.83-.18c1.2-.27,1.64.25,2.25,1.16.44.67,1,.74,1.74.89a2.49,2.49,0,0,1,2.25,2c0,.24.26-.14.24-.27a2.41,2.41,0,0,0-1.11-1.71,3,3,0,0,0-1.09-.37c.18-.86.45-1.71.71-2.54.48-1.53,1.56-3.26,1-4.89-.58-1.8-2.6-2.83-4.34-3.36L91.6,48l.56-1.69a6,6,0,0,0,1.4-.64A6.18,6.18,0,0,0,95,44.22c1.4-1.94,2-4.94,0-6.73a6.49,6.49,0,0,0-5.5-1.12,3.51,3.51,0,0,0-2.61,2.73,10.6,10.6,0,0,0,.54,5.83L83.23,57.49l0,.06c-1.1-1.87-3.46-1.54-4.95-2.92-.7-.65-1.13-1.33-2.12-1.52-1.39-.28-2.85.28-4-.69,0-1,0-1.93,0-2.89a15.28,15.28,0,0,0-.92-6A4.55,4.55,0,0,0,69.92,42a11.93,11.93,0,0,1-2.06-2.14A9,9,0,0,0,66,37.7c-.08-.12-.25-.24-.29-.19a4.51,4.51,0,0,0-1-.45,3.69,3.69,0,0,0,.13-.9c.05-2.11-1.32-3.78-2.48-5.39C61,28.9,59.94,26.71,58,25.4a3.93,3.93,0,0,0-4.92.38,9.23,9.23,0,0,0-1.38,1.7,4.22,4.22,0,0,0-3.44-2.86,3.85,3.85,0,0,0-3.54,2.05c-2.21,3.36-4,6.84-3.69,10.91-1.62-.24-2.47-2.13-4.21-2a11,11,0,0,0-4.7,1.71c-.74.47-.68,1.09-.67,1.9C31.44,40.57,31.58,41.94,31.7,43.3ZM88.26,70.2a4.58,4.58,0,0,0-1-1.2c-.76-.52-2.06.13-2.87.22-2.53.25-3.87-2-5.85-3.1a1.58,1.58,0,0,0-1.44,0c.22-1.53.07-3.06.95-4.46,1-1.62,3.78-.86,5.28-.52a11.62,11.62,0,0,1,5.56,2.57c1,1,.56,2.39.31,3.58A13,13,0,0,1,88.26,70.2Zm-5.06-11q2.17-6.41,4.33-12.79c.15-.46.49-1.06.36-1.56s-.3-.93-.42-1.41c-.48-2-.7-4.62,1.29-5.83,1.38-.82,3.45-.57,4.88-.08a3,3,0,0,1,2.24,3.27,6.07,6.07,0,0,1-2.13,3.7,5.17,5.17,0,0,1-1.82,1c-.12.05-.16.3-.2.41q-2.28,6.81-4.57,13.61l-.23.71c-.06.16,0,.69.18.75,1.53.42,3.39,1.21,4.26,2.61.47.77,0,1.6-.28,2.35s-.59,1.72-.85,2.58c-.21.7-.41,1.41-.55,2.12a.63.63,0,0,0,0,.29,2.48,2.48,0,0,1-1.13-.44.85.85,0,0,1-.17-.16,14.34,14.34,0,0,0,1-2.78c.28-1.08.71-2.65.14-3.71a4.72,4.72,0,0,0-2.05-1.72,15.46,15.46,0,0,0-3.78-1.39c-1.66-.42-4.33-1.12-5.59.45s-1,3.33-1.21,5a1.55,1.55,0,0,1-.91.06.93.93,0,0,1-.38-.2.46.46,0,0,0,0-.27A12.75,12.75,0,0,1,76.45,61a3.68,3.68,0,0,1,.85-1.28,3.57,3.57,0,0,1,2.23-.51,17.66,17.66,0,0,1,3.56.15C83.16,59.37,83.19,59.24,83.2,59.21ZM51,77.52c-2.3-.07-4.6.08-6.9,0a29.2,29.2,0,0,1,.11-3.1c0-1.27-.12-2.54-.1-3.82,0-2.49.79-5,3.52-5.59,3.11-.69,4.2,2.26,4.49,4.68a68.34,68.34,0,0,1,.32,7.84Zm1.89.07a56.58,56.58,0,0,0-.46-8.73c-.33-2.06-1.55-3.92-3.8-4.08a4.48,4.48,0,0,0-4.84,4.08,21.91,21.91,0,0,0-.06,4.79,14.78,14.78,0,0,1,0,2.49,5.14,5.14,0,0,0,0,1.41l-.54,0c-.4,0-.81,0-1.21-.06-.13-1.84-.14-3.69-.12-5.54,0-1.08.05-2.17.09-3.26a19.87,19.87,0,0,1,.28-3.62c.45-2.06,2-3.76,3.36-5.26.54-.58,2.38-3.32,3.18-2.85,1.07.64,1.81,2.13,2.47,3.14,1,1.59,2.36,3,3.28,4.63,1.13,2,1,4.27,1,6.52,0,1.19,0,2.37.08,3.56,0,.59,0,1.19,0,1.78v1.06a.2.2,0,0,0,0,.07ZM32.31,38.23a11.18,11.18,0,0,1,4.5-1.75c1.8-.32,2.69,1.61,4.32,1.93a.11.11,0,0,0,.09.05c2,.21,4.05,1,6.06.39.29-.09.8-.71.23-.54a7.2,7.2,0,0,1-3.2,0c-.48-.07-1-.17-1.44-.25l-.8-.12c-.28,0-.24-.68-.26-.84A12.32,12.32,0,0,1,43,30.72a20.65,20.65,0,0,1,1.36-2.49,1.41,1.41,0,0,0,.69.86,1.37,1.37,0,0,0,1.44-.41c.23-.19-.17-.13-.28,0-.77.66-1.4-.23-1.52-.95a11.6,11.6,0,0,1,1.39-2c.86-.89,2.28-.52,3.18.1A4.91,4.91,0,0,1,51,28.25c0,.06.07.08.14.08a29.87,29.87,0,0,0-1.37,2.88,12.53,12.53,0,0,0-1,3.28,38.92,38.92,0,0,1-.47,4.43c-.1.4.23.92.38.32.45-1.78.29-3.64.66-5.42,1.5,1.23,3.8,1.18,5.62,1a17.79,17.79,0,0,0,7.31-2.47c.26-.16,0-.24-.19-.13a17.45,17.45,0,0,1-6.75,2.32c-1.81.22-4.17.24-5.64-1-.06,0-.2,0-.3.06a5.36,5.36,0,0,1,.14-.54,20.88,20.88,0,0,1,2.9-5.68,3.71,3.71,0,0,1,4.35-1.59c2,.53,3.15,2.75,4.21,4.33s2.57,3.13,3.14,5a2.4,2.4,0,0,1-.52,2.71,6.77,6.77,0,0,1-2,1c-2.84,1-6.72,1.27-9.51-.08-.32-.16-.53.72-.27.85,3.1,1.5,7.46,1.14,10.56-.21a3.69,3.69,0,0,0,2-1.79c.06.11.13.2.21.22a3.87,3.87,0,0,1,1.13.49,3.35,3.35,0,0,1,0,1.41c-.14.66-.74.86-1.29,1a2.11,2.11,0,0,0-1.09.82,2.64,2.64,0,0,0-.17,2,5.82,5.82,0,0,1-.4,2.7,3.29,3.29,0,0,1-.45,1c-.26.33-.74-.21-.93-.38a5,5,0,0,0-1.86-1.11,3.14,3.14,0,0,1-1.89-.94,2.88,2.88,0,0,1-.43-.9,2.31,2.31,0,0,0-1.18-1.26,12.15,12.15,0,0,0-2.46-.7c-1.24-.35-2.41-.94-3.64-1.32-2.43-.74-4.58.31-7,.48-1.54.12-2.46-.67-3.5-1.66a3.42,3.42,0,0,0-1.79-1.07c-1.61-.24-3.25.26-4.87.14l-.11,0c-.18,0,.07.34.19.36,1.54.2,3.13-.21,4.68-.15,1.14,0,1.85,1,2.62,1.69a3.77,3.77,0,0,0,2.43,1.07,10.9,10.9,0,0,0,3.2-.45A8.45,8.45,0,0,1,50,41c1.15.28,2.23.81,3.34,1.2a15.42,15.42,0,0,1,3.29,1.06c.5.32.69,1.33,1.07,1.81a3.14,3.14,0,0,0,1.69,1,4.53,4.53,0,0,1,1.57.62c.32.22.6.51.91.75s.62.46.93.2.57-1.35.71-1.86a5.09,5.09,0,0,0,.1-2.36,2,2,0,0,1,1.46-2.37,1.62,1.62,0,0,0,1.21-1.8,2.73,2.73,0,0,0-.16-.75c1.25,1,1.94,2.56,3.2,3.62a10.38,10.38,0,0,1,1.26,1.13,4.41,4.41,0,0,1,.66,1.7,17.68,17.68,0,0,1,.36,3.78q0,1.71,0,3.42a.42.42,0,0,0,0,.16A67.55,67.55,0,0,0,72,60.51a21.28,21.28,0,0,0,1.68,5.19,10.9,10.9,0,0,1,.81,2.62,2.24,2.24,0,0,1-.8,1.75A6.7,6.7,0,0,0,71.53,74a4.21,4.21,0,0,1-1,2.78A4.34,4.34,0,0,1,68,77.85a22.61,22.61,0,0,1-3.68,0c-1.54,0-3.08,0-4.62,0-1.22,0-2.43,0-3.64-.08,0,0,0-.09,0-.14-.05-.7,0-1.43,0-2.13,0-1.42-.09-2.85-.1-4.27,0-2.45.06-4.65-1.16-6.86-1-1.76-2.42-3.27-3.53-5-.56-.85-1.47-2.61-2.63-2.76s-2.15,1.62-2.71,2.3a24.43,24.43,0,0,0-3.67,4.8c-1,2.08-.77,4.72-.83,7s-.06,4.52.09,6.77c-1.66-.12-3.32-.3-5-.52-1.12-.14-2.25-.3-3.37-.5a3.37,3.37,0,0,1-1.65-.63,3,3,0,0,1-.72-2.17,23.57,23.57,0,0,1,.49-5.16c.42-2.5,1.12-4.94,1.33-7.47.23-2.73,0-5.48.21-8.22A49.61,49.61,0,0,0,32.31,45c-.15-1.48-.29-3-.37-4.44C31.91,39.82,31.66,38.71,32.31,38.23Z"/><path class="cls-2" d="M69.48,68.86c0,1.83-.23,3.66-.23,5.5,0,.11.45.06.45-.09,0-1.83.21-3.66.23-5.49a29.89,29.89,0,0,0-1-7.47,32.41,32.41,0,0,1-.92-8.15c0-2.45.28-4.9.27-7.35,0-.11-.45-.06-.45.09,0,2.45-.22,4.89-.27,7.34a31.59,31.59,0,0,0,.92,8.16A30.77,30.77,0,0,1,69.48,68.86Z"/><path class="cls-2" d="M53.81,31a1.35,1.35,0,0,1-.77-.12,1.26,1.26,0,0,1,.42-.84c.09-.09,0-.53-.08-.4a1.94,1.94,0,0,0-.55,1.17c0,.19,0,.43.15.53a1.45,1.45,0,0,0,.8.11C53.94,31.38,53.94,30.93,53.81,31Z"/><path class="cls-2" d="M52.89,38c.16,0,0-.41-.2-.39a.91.91,0,0,1-.93-.43L52,37c.12-.09-.13-.46-.26-.38a2.6,2.6,0,0,0-.33.25s0,.09,0,.14A1.39,1.39,0,0,0,52.89,38Z"/><path class="cls-2" d="M57,37.88c.12-.1-.17-.45-.29-.36a.64.64,0,0,1-.73.1c-.06,0,0-.15,0-.22a.79.79,0,0,1,.29-.4c.12-.1-.16-.45-.28-.36a.75.75,0,0,0-.14,1.13A.85.85,0,0,0,57,37.88Z"/><path class="cls-2" d="M60.64,36c0,.06.24,0,.31,0a1.14,1.14,0,0,0,.62-.26c.09-.08.14-.51,0-.41a1,1,0,0,1-.73.23c-.12,0-.14-.26-.15-.34a.55.55,0,0,1,.14-.39.44.44,0,0,0,.08-.31c0-.09-.07-.11-.12,0a1.42,1.42,0,0,0-.28,1.18A.79.79,0,0,0,60.64,36Z"/><path class="cls-2" d="M58.65,38.07a2,2,0,0,0,1.76-.3c.26-.16,0-.24-.18-.14a1.29,1.29,0,0,1-1.25.2C58.86,37.78,58.47,38,58.65,38.07Z"/><path class="cls-2" d="M45,36.8a1.48,1.48,0,0,1-.67.49c-.31.11-.52-.12-.65-.38s-.5-.07-.43.07c.47.94,1.67.5,2.19-.14C45.56,36.74,45.13,36.69,45,36.8Z"/><path class="cls-2" d="M48.3,31.59a.63.63,0,0,0,1.05-.26.5.5,0,0,0,0-.32c0-.08-.11-.08-.15,0a.46.46,0,0,1-.67.26.63.63,0,0,1-.3-.28c-.08-.14,0-.26.09-.37s0-.54-.1-.4A1,1,0,0,0,48.3,31.59Z"/><path class="cls-2" d="M97.35,74.85a6.37,6.37,0,0,1-1.7-2.9A2.65,2.65,0,0,0,94,70.15c-.63-.16-1.5-.13-1.21-1.09a15.21,15.21,0,0,0,.48-1.49,2.54,2.54,0,0,0-1-2.39c-.26-.22-.6.61-.38.8a3,3,0,0,1,.84,1.13c.23.53-.11,1.14-.29,1.63a2,2,0,0,0,0,1.89c.2.27.73.3,1,.35a1.8,1.8,0,0,1,1.19.67c.7.88.78,2.11,1.41,3a17.75,17.75,0,0,0,2.31,2.19c.66.69,2.08,2.44,1.48,3.47a4.22,4.22,0,0,1-2.28,1.34c-.89.3-1.81.51-2.73.74a11.87,11.87,0,0,0-4.34,2.19,36.3,36.3,0,0,1-3.93,3,8.16,8.16,0,0,1-5.78.7c-2.17-.46-4-1.9-6.06-2.56-1.17-.38-2.39-.54-3.57-.87a41.41,41.41,0,0,0-4.23-1,19.09,19.09,0,0,0-3.77-.27c-.76,0-1.52.08-2.28,0a9.85,9.85,0,0,1-2.2-.49c-2.44-.67-4.79-.08-7.16.59a27.58,27.58,0,0,1-3.91.87,9,9,0,0,1-4.11-.62c-2-.7-4-1.3-6.06-2-1.69-.57-3.63-1.36-5.43-1A21.62,21.62,0,0,1,29,81.8a9.37,9.37,0,0,1-4.3-1c-1.09-.47-2.22-.63-3.32-1.05a9.16,9.16,0,0,1-2-1.23l-.15-.1c-.07-.18-.19-.34-.31-.35h-.08a.06.06,0,0,0-.07,0h0l-.05,0,.13-.2a5.71,5.71,0,0,1,.74-.82,13.15,13.15,0,0,0,1.21-1.15c.18-.22-.15-.72-.37-.8-.43-.14-.71-.16-.48-.56a3.4,3.4,0,0,1,.8-.85c.57-.49,1.19-.91,1.77-1.38a2.19,2.19,0,0,0,.89-1.62A4.17,4.17,0,0,1,23.46,69a5,5,0,0,1,1.09-1.29,4.5,4.5,0,0,0,.9-2.61c.24-1.25,1.66-1.75,2.55-2.45s.66-1.56,1.17-2.35c.28-.43,2.16-1.51,2.6-1s.32-.33.13-.56c-.58-.71-1.66-.22-2.33.1-1.29.62-1,1.88-1.81,2.82s-2.25,1.2-2.77,2.59A16.65,16.65,0,0,0,24.68,66c-.18.73-1,1.27-1.43,1.83-.83,1,0,2.33-.81,3.27a19.68,19.68,0,0,1-2.24,1.81c-.45.39-1,.92-.95,1.58a1.44,1.44,0,0,0,.65,1,9.14,9.14,0,0,0-1.7,1.76,1,1,0,0,0,.24,1.3.42.42,0,0,0,0,.3,4.65,4.65,0,0,0,1.35,1,6.4,6.4,0,0,0,2.32,1c2.45.55,4.59,2.07,7.22,1.69,1-.14,1.94-.68,3-.84a7.2,7.2,0,0,1,2.94.42c1.91.54,3.84,1.17,5.73,1.77,1.15.37,2.24.86,3.4,1.2a8.74,8.74,0,0,0,3.74.16c2.71-.4,5.25-1.61,8-1.7a12.34,12.34,0,0,1,3.5.68,15.76,15.76,0,0,0,4.06.08c2.92,0,5.59,1,8.39,1.61a19.62,19.62,0,0,1,3.52,1c1,.45,2,1,3,1.47a9.6,9.6,0,0,0,5.83.73c3.3-.68,5.38-3.74,8.29-5.2,2.31-1.16,7.72-1,7.76-4.54C100.52,77.52,98.7,75.94,97.35,74.85Z"/><path class="cls-2" d="M23.42,75.52c-.67-.1-1,.34-1.09,1,0,.16.42.13.44,0a1.65,1.65,0,0,1,.25-.68c.14-.18.41,0,.56.08.36.19.68.46,1,.67.11.07.53-.05.38-.14A4.74,4.74,0,0,0,23.42,75.52Z"/><path class="cls-2" d="M26.07,69.79c.12-.08.09-.51,0-.44a1,1,0,0,0-.46,1.28c.28.46,1,.39,1.36.16.12-.07.1-.51,0-.44a1.08,1.08,0,0,1-1,.08.49.49,0,0,1-.25-.26C25.66,70.06,26,69.84,26.07,69.79Z"/><path class="cls-2" d="M30.13,65A1.08,1.08,0,0,1,30,63c.2-.12-.25-.11-.34-.06a1.2,1.2,0,0,0,.11,2.25C29.88,65.18,30.29,65,30.13,65Z"/><path class="cls-2" d="M26.62,74.54a.85.85,0,0,1,.51-.17c.28,0,.41.18.53.41s.42.33.32.12c-.32-.66-1-1.13-1.7-.66a.77.77,0,0,0-.37.64.84.84,0,0,0,.61.62c.22.07-.05-.28-.16-.31l-.08,0v0a.68.68,0,0,1,0-.2A.92.92,0,0,1,26.62,74.54Z"/><path class="cls-2" d="M28.22,78.9l.09,0h.2a2.8,2.8,0,0,1,.57.08.45.45,0,0,0,.32,0c.08-.06,0-.12-.09-.13a2.53,2.53,0,0,0-1.39,0c-.2.07-.4.24-.35.47a.61.61,0,0,0,.45.43,1.47,1.47,0,0,0,1.09-.11c.08,0,.08-.1,0-.14a.4.4,0,0,0-.32,0l-.17.07-.1,0h-.18c-.05,0,0,0,0,0a.41.41,0,0,1-.28-.29A.28.28,0,0,1,28.22,78.9Z"/><path class="cls-2" d="M38.1,79.38c-.43-.18-1-.16-1.16.33,0,.13.28.42.33.29.27-.74,1.37-.28,1.56.29,0,.11.39.37.31.14A1.77,1.77,0,0,0,38.1,79.38Z"/><path class="cls-2" d="M46.22,80.79a.66.66,0,0,1,.53-.07.42.42,0,0,0,.32-.08c.07,0,0-.12,0-.14a1.56,1.56,0,0,0-1,.15c-.17.09-.42.3-.32.52s.49,0,.44-.11S46.14,80.86,46.22,80.79Z"/><path class="cls-2" d="M77.57,69.71a.77.77,0,0,0,.78.85,1,1,0,0,0,1-.88c0-.13-.37-.36-.38-.22a.91.91,0,0,1-.58.73.69.69,0,0,1-.4,0l0,0a.57.57,0,0,1,0-.26C78,69.8,77.59,69.57,77.57,69.71Z"/><path class="cls-2" d="M83.17,68.1c-1.07.15-1.13-1.53-.24-1.84.23-.08-.2-.19-.31-.15a1.11,1.11,0,0,0-.74,1.37,1.27,1.27,0,0,0,1.51.8C83.68,68.24,83.31,68.08,83.17,68.1Z"/><path class="cls-2" d="M77.17,80a1.18,1.18,0,0,0,.34,1.75,2,2,0,0,0,2.08-.19c.12-.08-.27-.29-.4-.21a1.5,1.5,0,0,1-1.49.24c-.56-.28-.33-1-.1-1.43C77.67,80.06,77.25,79.89,77.17,80Z"/><path class="cls-2" d="M76.2,72.5c.15-.11-.29-.17-.4-.09a1.52,1.52,0,0,0-.64,1.51c.17.59.92.61,1.41.51.3-.06.07-.23-.13-.19-.5.1-.86-.1-.86-.63A1.47,1.47,0,0,1,76.2,72.5Z"/><path class="cls-2" d="M82.78,79a.77.77,0,0,1-1.14-.7c0-.31-.24-.13-.23.09a1.37,1.37,0,0,0,.34.93.91.91,0,0,0,1,.12C82.92,79.39,82.93,79,82.78,79Z"/><path class="cls-2" d="M67,79.08c0,.15,0,.3-.1.44a.06.06,0,0,0,0,.08,1.7,1.7,0,0,0,1.42.36c.3,0,0-.23-.2-.21a.88.88,0,0,1-.77-.17c.08-.14.05-.29.1-.44S67,78.93,67,79.08Z"/><path class="cls-2" d="M53.49,78.84c-.14.19-.18.43-.34.61s.21.3.3.31a8.28,8.28,0,0,0,1.22,0c.19,0-.12-.34-.24-.33a3.87,3.87,0,0,1-.76,0,2.59,2.59,0,0,1,.17-.33C53.93,79,53.57,78.72,53.49,78.84Z"/><path class="cls-2" d="M82.53,83.32c.11-.06.17-.5,0-.4a1.51,1.51,0,0,1-1.68,0,2,2,0,0,1,.3-.35c.1-.08.13-.53,0-.41a5.83,5.83,0,0,0-.55.66.35.35,0,0,0,0,.38A1.54,1.54,0,0,0,82.53,83.32Z"/><path class="cls-2" d="M88.56,42.37l4.34,1h0a0,0,0,0,0,0,0l0,0c1.09-1.73,1-4-1.23-4.56s-3.36,1.43-3.31,3.38C88.45,42.17,88.47,42.35,88.56,42.37ZM91,39.07c1.38,0,2.69.8,2.45,2.28a4.11,4.11,0,0,1-.6,1.53L88.67,42C88.72,40.55,89.42,39.12,91,39.07Z"/><path class="cls-2" d="M91.94,79.19c-.07-.1-.51-.15-.41,0a2.66,2.66,0,0,0,2.73.71c.15,0-.24-.22-.35-.19A1.86,1.86,0,0,1,91.94,79.19Z"/><path class="cls-2" d="M77.62,57.36a2.27,2.27,0,0,0,1-.52c.12-.11-.27-.33-.38-.24a1.22,1.22,0,0,1-.25.2c-.08-.1-.29-.18-.35-.11s-.22.29-.35.42S77.52,57.38,77.62,57.36Z"/><path class="cls-2" d="M74.64,55.44c.08,0,.22-.06.25-.15s-.15-.08-.19-.07c-.31.08-.64.24-.67.59a.67.67,0,0,0,.55.67.37.37,0,0,0,.31-.06s.14-.13,0-.16a.61.61,0,0,1-.45-.37C74.43,55.75,74.47,55.48,74.64,55.44Z"/><path class="cls-2" d="M94.44,75.29a.56.56,0,0,1-.36,0c-.07,0-.13-.17-.16-.23s-.17-.42-.26-.62a.49.49,0,0,0-.23-.22s-.18,0-.14.06a3.89,3.89,0,0,0,.47,1,.9.9,0,0,0,1,.31C94.89,75.55,94.57,75.25,94.44,75.29Z"/><path class="cls-2" d="M94.09,78.11l0,0a.61.61,0,0,1,0-.23c0-.14-.43-.28-.43-.12a.65.65,0,0,0,.67.65,1.64,1.64,0,0,0,1-.39c.13-.09-.26-.31-.38-.23a1.94,1.94,0,0,1-.54.31A.85.85,0,0,1,94.09,78.11Z"/><path class="cls-2" d="M74.28,76.86c-.25.14-.49.15-.61-.16,0-.15-.49,0-.44.09.2.56.9.43,1.31.19C74.8,76.84,74.41,76.78,74.28,76.86Z"/></g></svg>