<svg id="Ebene_1" data-name="Ebene 1" xmlns="http://www.w3.org/2000/svg" viewBox="0 0 113.86 110.51"><defs><style>.cls-1{opacity:0.85;}.cls-2{fill:#fff;}</style></defs><g class="cls-1"><path class="cls-2" d="M94.36,80.52c-14,.41-27.83-1.19-41.62-3a4.93,4.93,0,0,1,1.67,0q5.36.39,10.69.83c.5,0,.68-.1.6-.54a53,53,0,0,1-.56-7.33c-.27-7.07-.16-14.13-.09-21.2,0-4.67.14-9.33.24-14,.07-3.15.16-6.31.23-9.46.07-3.37.21-6.74.31-10.1a1.23,1.23,0,0,0,0-.27,1.88,1.88,0,0,0-.74.29,8.71,8.71,0,0,1-9.31-1.38c-.13-.12-.31-.23-.24-.41s.3-.15.48-.16a17.81,17.81,0,0,0,8.91-3c.16-.11.31-.23.46-.35s.4-.4.06-.69a.72.72,0,0,1,.1-1.22,1,1,0,0,1,1.31.1.71.71,0,0,1-.14,1.18.88.88,0,0,0-.44.88c0,3.62.25,7.24.29,10.86,0,2.9.16,5.8.23,8.7q.16,6.44.27,12.87c0,1.82,0,3.64.08,5.46.18,5.94.16,11.89.07,17.84,0,3.4-.13,6.81-.47,10.2a14.64,14.64,0,0,1-.23,1.5c0,.28.07.38.39.4,3.72.29,7.45.57,11.18.88,4.58.4,9.17.62,13.76.82a41.84,41.84,0,0,0,4.19,0,19.12,19.12,0,0,1-.7,2.52,7.5,7.5,0,0,1-6,4.71c-4.53.94-9,1.85-13.63,2.53-4,.6-8,1-12.09,1.45s-7.94.69-11.91.93c-3.48.21-7,.19-10.44.16-3.09,0-6.17-.23-9.23-.55a4.1,4.1,0,0,1-1.62-.47c-.53-.31-1-.66-1.59-.92a2,2,0,0,1-1.25-2.39,18.51,18.51,0,0,1,.36-2.35c.14-.5.26-.54.74-.25a9,9,0,0,1,1.2.75,4.35,4.35,0,0,0,3.32.84c3-.19,6-.29,9-.45,5.22-.27,10.45-.47,15.67-.8,6-.39,12-1.32,18-2.17,5.37-.77,10.74-1.54,16-2.64C92.71,80.89,93.53,80.7,94.36,80.52Zm1.15,0-.39.14A66.8,66.8,0,0,1,84.28,83.9a188.53,188.53,0,0,1-24.09,3.71c-3.37.3-6.76.46-10.15.59-2.64.09-5.28,0-7.92,0-1.45,0-2.9,0-4.35-.07-2.09-.12-4.17-.19-6.25-.29-.28,0-.32.06-.24.27a4.78,4.78,0,0,1,.1,3c-.14.47.09.54.56.54,2.35,0,4.7-.11,7.05-.19,4.37-.13,8.73-.39,13.1-.66q5.77-.36,11.54-.92c4.57-.46,9.13-1,13.69-1.52,4.38-.5,8.75-1.06,13.12-1.56A2.47,2.47,0,0,0,92.09,86,27.16,27.16,0,0,0,95.51,80.49ZM65.41,10.9a11.1,11.1,0,0,1-9.52,3.18,1.13,1.13,0,0,0,.49.32,13.41,13.41,0,0,0,8.25,1.11c.92-.19.92-.17.65-1,0-.08,0-.17-.07-.26A6.07,6.07,0,0,1,65.41,10.9ZM28.49,85.59l-.17.11a11.31,11.31,0,0,1,.13,3.53.42.42,0,0,0,.11.41c.74.59,1.49,1.16,2.24,1.75a6.17,6.17,0,0,1,0-3.25.52.52,0,0,0-.14-.56C30,86.92,29.22,86.26,28.49,85.59ZM65.88,10.36c-.12,1.54-.59,3.07,0,4.63Z"/><path class="cls-2" d="M68.21,75.78a.58.58,0,0,1,0-.57A91.71,91.71,0,0,0,71.06,65c.58-2.63,1-5.29,1.35-8A78.21,78.21,0,0,0,73,45.42c-.06-2.57-.29-5.14-.57-7.7-.32-2.83-.79-5.65-1.31-8.45-.42-2.3-1-4.57-1.57-6.83s-1.31-4.73-2-7.07a1.22,1.22,0,0,1,0-.54c10.2,19.35,19.65,39,26.26,59.53-7.79-18-16.41-35.69-24-53.76.25.72.51,1.45.75,2.17a88.81,88.81,0,0,1,2.68,9.93c.48,2.36.87,4.73,1.14,7.11a68.33,68.33,0,0,1,.39,10.31A66.88,66.88,0,0,1,73.55,59,69.43,69.43,0,0,1,70,71.31c-.5,1.37-1.12,2.7-1.68,4.06a2.77,2.77,0,0,0-.12.41Z"/><path class="cls-2" d="M44,75.5A570.24,570.24,0,0,1,63.77,17.73c.31.05.25.22.26.35q.07,1.19.12,2.37c.22,6.89.12,13.77.14,20.66,0,5-.06,10,0,14.93.07,3.29.13,6.59,0,9.89a51.47,51.47,0,0,1-.27,6.68c-.07-1-.12-1.91-.16-2.87-.22-6.22-.13-12.43-.15-18.65,0-4.24,0-8.48,0-12.71s-.14-8.64-.07-13q.06-3.14.11-6.27c0-.34.07-.67.12-1.07a.44.44,0,0,0-.25.38c-1.38,4.8-2.84,9.59-4.34,14.36-.72,2.27-1.37,4.56-2.2,6.8a.48.48,0,0,0,0,.37c.1.21.25.43-.19.5-.09,0-.15.2-.19.32C55.3,45,53.9,49.17,52.47,53.34c-.49,1.45-1,2.88-1.57,4.32-.45,1.2-.9,2.41-1.36,3.6q-2.7,7-5.42,14.06A1.13,1.13,0,0,1,44,75.5Z"/><path class="cls-2" d="M53.74,80.27a5.39,5.39,0,0,1-2.51,4,9.38,9.38,0,0,1-4.62,1.57c-3.84.45-7.7.55-11.55.76-1.08.06-2.17.11-3.25.18a1.24,1.24,0,0,1-.9-.25c-.7-.53-1.4-1.05-2.09-1.59-.12-.09-.32-.16-.26-.33s.29-.17.46-.2c2.87-.39,5.73-.8,8.61-1.18s5.62-.72,8.44-1a1.64,1.64,0,0,0,1.63-1.13,7.21,7.21,0,0,1,2.14-3c1.71-1.4,3-.5,3.62.88A6.46,6.46,0,0,1,53.74,80.27ZM28.9,84.77c.67.42,1.34.82,2,1.24a1.67,1.67,0,0,0,1.22.21c4.52-.71,9.09-1.19,13.63-1.81A11.08,11.08,0,0,0,50.57,83c1.54-1,2.44-2.32,2.14-4.09-.21-1.27-1.15-1.6-2.27-.82a2.4,2.4,0,0,0-.47.43,9.85,9.85,0,0,0-1.9,3.6,1,1,0,0,1-1,.78c-.63.05-1.26.16-1.88.25a156.48,156.48,0,0,1-15.6,1.47A.89.89,0,0,0,28.9,84.77Z"/><path class="cls-2" d="M68.21,75.78c2.18.25,4.36.55,6.56.69a74.45,74.45,0,0,0,9.68.08,37.27,37.27,0,0,0,8.79-1.63.23.23,0,0,1,.27,0A20.19,20.19,0,0,1,89,77a26.23,26.23,0,0,1-9,1.18A35.85,35.85,0,0,1,68.63,76a3.29,3.29,0,0,1-.42-.21Z"/><path class="cls-2" d="M64.17,73.13a75.1,75.1,0,0,1-20.64,3.14A75.43,75.43,0,0,1,64.17,73.13Z"/></g></svg>