<svg id="Ebene_1" data-name="Ebene 1" xmlns="http://www.w3.org/2000/svg" viewBox="0 0 421.95 138.58"><defs><style>.cls-1{fill:#fff;}</style></defs><path class="cls-1" d="M158.62,60.49c0,4.55,0,9.1,0,13.65,0,1.42-.41,2.1-1.92,2-1-.08-2,0-3,0-.62,0-1.21,0-1.34-.84-.21-1.2-.71-1-1.55-.45-4.88,3.46-10.1,1.68-11.81-4.06a16.81,16.81,0,0,1-.13-8.93c1.33-5.34,5.36-8,10.78-7,1.77.33,2.14-.15,2-1.78-.12-1.89,0-3.78,0-5.67,0-1,.37-1.54,1.4-1.66,1.23-.15,2.46-.37,3.67-.61s1.94,0,1.91,1.59C158.56,51.26,158.62,55.88,158.62,60.49Zm-7,4.23h0V63c0-2.55-1.68-3.62-4-2.56a3.41,3.41,0,0,0-1.91,2.22,10.12,10.12,0,0,0-.06,5.59,2.62,2.62,0,0,0,3.1,2,3.2,3.2,0,0,0,2.87-2.86C151.7,66.5,151.67,65.61,151.67,64.72Z"/><path class="cls-1" d="M120.19,57.26c1.72-1.19,3-2.31,4.74-2.74,4.38-1.07,7.74,1.44,7.77,5.94s0,9.21,0,13.81c0,1.38-.44,2-1.84,1.84a18.88,18.88,0,0,0-3.19,0c-1.41.11-1.89-.51-1.87-1.85,0-3.49,0-7,0-10.45,0-2.43-.56-3.32-2-3.3a3.3,3.3,0,0,0-3.24,3.59c0,3.36-.06,6.73,0,10.09,0,1.47-.51,2-2,1.92a25.27,25.27,0,0,0-3.37,0c-1.25.07-1.65-.5-1.64-1.69q0-9,0-18.06c0-1.25.55-1.7,1.71-1.66a15.1,15.1,0,0,0,1.78,0C118.84,54.53,120.26,54.75,120.19,57.26Z"/><path class="cls-1" d="M177.59,67.23c-1.66,0-3.32,0-5,0-1.09,0-1.36.51-1,1.47a3.87,3.87,0,0,0,3.51,2.57,10.25,10.25,0,0,0,6.33-1.33c1.44-.8,1.84-.27,2,1.12.44,3.35.35,3.56-2.91,4.67a16.07,16.07,0,0,1-8.22.59c-5.37-1-8.6-5.55-8.11-11.4a17.69,17.69,0,0,1,.42-2.8,9.81,9.81,0,0,1,10.56-7.8c5,.44,8.25,4,8.62,9.61,0,.3,0,.59,0,.89,0,2.32-.05,2.4-2.35,2.41-1.3,0-2.6,0-3.9,0Zm-3.33-4v0c.65,0,1.3,0,2,0s1-.19.85-.84a4.06,4.06,0,0,0-1.34-2.79,2.24,2.24,0,0,0-2.8-.13,2.88,2.88,0,0,0-1.42,3c.29,1.27,1.56.6,2.41.77A2,2,0,0,0,174.26,63.2Z"/><path class="cls-1" d="M100.7,71.3A9.18,9.18,0,0,0,105.45,70c1.58-.87,2.11-.35,2.17,1.23a3,3,0,0,0,.1.52c.36,2.36.17,2.67-2,3.58a16.5,16.5,0,0,1-8.87,1,9.44,9.44,0,0,1-8.29-8.65,15.12,15.12,0,0,1,.31-5.8,9.85,9.85,0,0,1,13.13-7c3.41,1.16,5,3.84,5.72,7.11,1.09,4.88.78,5.22-4.13,5.22-2.19,0-4.38,0-6.57,0-1.54,0-1.77.4-1.11,1.8C96.62,70.59,98.12,71.32,100.7,71.3Zm-2.5-8.1h1.07c2,0,2.42-.69,1.51-2.49a3.59,3.59,0,0,0-1-1.23,2.31,2.31,0,0,0-3,.09,3.06,3.06,0,0,0-1.27,3c.23,1.16,1.48.51,2.28.68A2,2,0,0,0,98.2,63.2Z"/><path class="cls-1" d="M257.23,31.86c12.08,0,24.15,0,36.22,0,1.76,0,2.48.46,2.34,2.29s-.06,3.78,0,5.67c0,1.14-.46,1.56-1.59,1.57s-1.83-.33-1.76-1.59c0-.18,0-.36,0-.54-.07-4.47.69-4-4.08-4H224.77c-3,0-3,0-3,2.87,0,.59,0,1.18,0,1.77.06,1.31-.7,1.53-1.81,1.53s-1.55-.53-1.53-1.61c0-1.95.08-3.91,0-5.85-.08-1.54.46-2.06,2-2.05,7.51.07,15,0,22.55,0Z"/><path class="cls-1" d="M197.35,70.6c2.54,0,4.55.06,6.55,0,1.39-.06,2.08.45,2.25,1.84.48,3.9,1.18,3.68-3,3.68s-8.4,0-12.6,0c-1.45,0-1.89-.45-2-1.91a7.18,7.18,0,0,1,2-5.76c2-2.15,3.82-4.51,5.7-6.79.24-.3.71-.63.39-1-.16-.21-.64-.23-1-.23-1.42,0-2.84,0-4.26,0a1.66,1.66,0,0,1-1.93-1.54c-.88-4.14-.92-4.13,3.29-4.13,3.72,0,7.45.06,11.18,0,1.71,0,2.22.63,2.26,2.29a7,7,0,0,1-1.89,5.29C202,64.79,199.88,67.55,197.35,70.6Z"/><path class="cls-1" d="M256.93,96.89H221.06c-2.58,0-2.59,0-2.59-2.55,0-1.77,0-3.54,0-5.31,0-1.21.59-1.49,1.66-1.5s1.7.3,1.68,1.49,0,2.36,0,3.54c0,1,.39,1.44,1.38,1.37.35,0,.71,0,1.06,0H290c2.43,0,2.43,0,2.44-2.44,0-.71,0-1.42,0-2.13-.06-1.2.32-1.84,1.7-1.84s1.69.68,1.66,1.87c0,1.89-.07,3.78,0,5.67.06,1.44-.59,1.85-1.91,1.84-4,0-8.05,0-12.07,0Z"/><path class="cls-1" d="M243.87,76.44c-4.29,0-7.19-1.92-8.73-5.93a13.16,13.16,0,0,1-.1-9.35c1.65-4.61,5.43-6.79,10.49-6.19,4.05.47,7.32,3.94,7.92,8.38a15.44,15.44,0,0,1-.17,5.63A9,9,0,0,1,243.87,76.44Zm-5.31-10.58a9.07,9.07,0,0,0,.73,3.69,5,5,0,0,0,9.3.12,9.84,9.84,0,0,0-.07-8.09,5,5,0,0,0-9.18,0A9.8,9.8,0,0,0,238.56,65.86Z"/><path class="cls-1" d="M277.64,65.74c0,2.9,0,5.79,0,8.69,0,.78,0,1.64-1.11,1.63-1,0-2.3.45-2.5-1.16s-.82-1-1.57-.46a9.3,9.3,0,0,1-6.45,2c-2.9-.18-4.77-1.68-5.25-4.58-.56-3.34-.16-6.72-.25-10.08,0-1.6.05-3.2,0-4.79s.93-1.75,2.18-1.73,2.23,0,2.2,1.71c-.07,4,0,7.92,0,11.88,0,3.4,2.05,4.71,5.13,3.24,2.23-1.07,3.86-2.46,3.59-5.41s0-6.15-.09-9.22c0-1.51.29-2.24,2-2.24s2.19.76,2.14,2.35C277.58,60.3,277.64,63,277.64,65.74Z"/><path class="cls-1" d="M77.8,58.11c1.28-1.7,2.53-3.1,4.52-3.55,1-.22,1.65-.13,1.73,1,0,.47.2.93.27,1.4.17,1.28.73,2.7.37,3.81s-2.17.76-3.29,1.23c-2.89,1.21-3.48,2-3.48,5.15,0,2.24-.09,4.49,0,6.73.09,1.74-.6,2.34-2.28,2.18a18.9,18.9,0,0,0-3,0c-1.25.08-1.65-.5-1.65-1.69q0-9,0-18.07c0-1.12.42-1.67,1.55-1.64a4.69,4.69,0,0,0,.53,0C76.72,54.6,76.72,54.6,77.8,58.11Z"/><path class="cls-1" d="M292.81,76.4a14,14,0,0,1-6.9-1.28c-1.08-.47-1.49-3.36-.59-4.09.56-.45,1,.06,1.44.29a11.8,11.8,0,0,0,6.48,1.45c1.51-.09,2.95-.39,3.22-2.14s-1.06-2.34-2.41-2.78c-1.51-.49-3.07-.86-4.58-1.38C286.11,65.3,284.56,63,285,60c.42-2.82,2.94-4.86,6.22-5a16.26,16.26,0,0,1,6.81.87c.55.21,1.24.39,1.16,1.13a5.2,5.2,0,0,1-.67,2.88c-.36.45-.88,0-1.29-.17a11.36,11.36,0,0,0-5.17-1c-1.28.06-2.65.15-2.94,1.69s1,2.08,2.2,2.52c1.88.7,3.89,1,5.71,1.88A6,6,0,0,1,299.9,73c-1.14,2.21-3.17,3.07-5.5,3.36A10.55,10.55,0,0,1,292.81,76.4Z"/><path class="cls-1" d="M220.87,69.83c1.32-4,2.66-8,3.95-12.06.82-2.56.78-2.52,3.43-2.49,1.38,0,1.62.46,1.17,1.71-1.56,4.26-3.06,8.56-4.58,12.84-.55,1.56-1.17,3.1-1.63,4.68a2,2,0,0,1-2.34,1.61c-1.28-.05-2.35,0-2.9-1.6-1.91-5.64-4-11.23-6-16.85-.27-.76-1.18-1.77.43-2.26,2.27-.69,3-.49,3.58,1.11,1.12,3.3,2.19,6.62,3.29,9.92.37,1.12.75,2.22,1.13,3.34Z"/></svg>